<?xml version="1.0" encoding="utf-8"?>
<svg viewBox="-240 -160 480 320" xmlns="http://www.w3.org/2000/svg">
  <rect style="fill: rgb(255, 255, 255);" x="-240" y="-160" width="480" height="320"/>
  <line style="fill: none; stroke: rgb(183, 183, 183);" x1="-5.116" y1="142.507" x2="-0.13" y2="149.585"/>
  <line style="fill: none; stroke: rgb(183, 183, 183);" x1="0.077" y1="149.646" x2="4.434" y2="142.291" transform="matrix(-1, 0, 0, -1, 4.511, 291.936996)"/>
  <ellipse style="fill: none; stroke: rgb(183, 183, 183);" rx="200" ry="115"/>
  <line style="fill: none; stroke: rgb(183, 183, 183);" x1="0" y1="-150" x2="0" y2="150"/>
  <line style="fill: none; stroke: rgb(183, 183, 183);" x1="-230" y1="0" x2="230" y2="0"/>
  <line style="fill: none; stroke: rgb(183, 183, 183);" x1="-165.237" y1="64.652" x2="0" y2="0"/>
  <path d="M -48.25 18.835 C -52.553 13.246 -55 6.828 -55 0.003" style="fill: none; stroke: rgb(183, 183, 183);"/>
  <rect style="fill: none; stroke: rgb(183, 183, 183);" x="-165.016" width="364.995" height="115.175"/>
  <path d="M 200.084 0.131 C 200.084 63.644 110.541 115.131 0.084 115.131 C -68.661 115.131 -129.305 95.188 -165.304 64.815" style="fill: none; stroke: rgb(239, 125, 33); stroke-width: 4px;"/>
  <polygon points="-7.661 105.924 10.96 114.899 -7.661 123.874" style="fill: rgb(239, 125, 33);"/>
  <ellipse style="stroke: rgb(0, 0, 0); fill: rgb(255, 253, 253);" cx="-164.582" cy="63.762" rx="6" ry="6"/>
  <ellipse style="stroke: rgb(0, 0, 0); fill: rgb(255, 253, 253);" cx="199.958" rx="6" ry="6"/>
  <path d="M 7.169 57.019 L 10.403 56.494 L 9.053 61.05 C 10.147 59.181 11.141 57.875 12.035 57.131 C 12.541 56.706 12.953 56.494 13.272 56.494 C 13.479 56.494 13.641 56.555 13.76 56.676 C 13.879 56.798 13.938 56.975 13.938 57.206 C 13.938 57.619 13.832 58.012 13.619 58.387 C 13.469 58.668 13.253 58.809 12.972 58.809 C 12.829 58.809 12.705 58.762 12.602 58.669 C 12.499 58.575 12.435 58.431 12.41 58.237 C 12.397 58.118 12.369 58.04 12.325 58.003 C 12.275 57.953 12.216 57.928 12.147 57.928 C 12.041 57.928 11.941 57.953 11.847 58.003 C 11.684 58.09 11.438 58.334 11.107 58.734 C 10.588 59.347 10.025 60.14 9.419 61.115 C 9.156 61.528 8.931 61.993 8.744 62.512 C 8.481 63.225 8.331 63.653 8.294 63.797 L 7.994 64.978 L 6.56 64.978 L 8.294 59.156 C 8.494 58.481 8.594 58 8.594 57.712 C 8.594 57.6 8.547 57.506 8.453 57.431 C 8.328 57.331 8.163 57.281 7.957 57.281 C 7.826 57.281 7.585 57.309 7.235 57.365 L 7.169 57.019 Z M 16.739 56.494 C 16.952 56.856 17.099 57.195 17.18 57.511 C 17.261 57.826 17.343 58.447 17.424 59.372 L 17.836 63.984 C 18.211 63.534 18.755 62.822 19.467 61.847 C 19.811 61.372 20.236 60.725 20.742 59.906 C 21.049 59.406 21.236 59.056 21.305 58.856 C 21.342 58.756 21.361 58.653 21.361 58.547 C 21.361 58.478 21.339 58.422 21.295 58.378 C 21.252 58.334 21.138 58.282 20.953 58.223 C 20.769 58.164 20.616 58.054 20.494 57.895 C 20.372 57.736 20.311 57.553 20.311 57.347 C 20.311 57.09 20.386 56.884 20.536 56.728 C 20.686 56.572 20.874 56.494 21.099 56.494 C 21.374 56.494 21.608 56.608 21.802 56.836 C 21.995 57.064 22.092 57.378 22.092 57.778 C 22.092 58.272 21.923 58.836 21.586 59.47 C 21.249 60.105 20.599 61.078 19.636 62.39 C 18.673 63.703 17.508 65.134 16.139 66.684 C 15.196 67.753 14.496 68.426 14.039 68.705 C 13.583 68.983 13.192 69.122 12.867 69.122 C 12.674 69.122 12.503 69.048 12.356 68.901 C 12.209 68.754 12.136 68.584 12.136 68.39 C 12.136 68.147 12.238 67.925 12.441 67.725 C 12.644 67.525 12.864 67.425 13.102 67.425 C 13.227 67.425 13.33 67.453 13.411 67.509 C 13.461 67.54 13.516 67.629 13.575 67.776 C 13.634 67.923 13.689 68.022 13.739 68.072 C 13.77 68.103 13.808 68.119 13.852 68.119 C 13.889 68.119 13.955 68.088 14.049 68.025 C 14.392 67.812 14.792 67.475 15.249 67.012 C 15.849 66.4 16.293 65.9 16.58 65.512 L 16.055 59.569 C 15.968 58.588 15.836 57.991 15.661 57.778 C 15.486 57.565 15.193 57.459 14.78 57.459 C 14.649 57.459 14.414 57.478 14.077 57.515 L 13.992 57.169 L 16.739 56.494 Z" style="white-space: pre;"/>
  <path d="M 91.114 -15.967 L 94.349 -16.492 L 92.999 -11.936 Q 94.639 -14.739 95.98 -15.855 Q 96.739 -16.492 97.217 -16.492 Q 97.527 -16.492 97.705 -16.31 Q 97.883 -16.127 97.883 -15.78 Q 97.883 -15.161 97.564 -14.599 Q 97.339 -14.177 96.917 -14.177 Q 96.702 -14.177 96.547 -14.317 Q 96.392 -14.458 96.355 -14.749 Q 96.336 -14.927 96.27 -14.983 Q 96.195 -15.058 96.092 -15.058 Q 95.933 -15.058 95.792 -14.983 Q 95.549 -14.852 95.052 -14.252 Q 94.274 -13.333 93.364 -11.871 Q 92.97 -11.252 92.689 -10.474 Q 92.295 -9.405 92.239 -9.189 L 91.939 -8.008 L 90.505 -8.008 L 92.239 -13.83 Q 92.539 -14.842 92.539 -15.274 Q 92.539 -15.442 92.399 -15.555 Q 92.211 -15.705 91.902 -15.705 Q 91.705 -15.705 91.18 -15.621 Z M 100.947 -16.492 Q 101.406 -16.005 101.64 -15.517 Q 101.809 -15.18 102.194 -13.746 L 103.019 -14.983 Q 103.347 -15.433 103.815 -15.841 Q 104.284 -16.249 104.64 -16.399 Q 104.865 -16.492 105.137 -16.492 Q 105.54 -16.492 105.779 -16.277 Q 106.019 -16.061 106.019 -15.752 Q 106.019 -15.396 105.878 -15.264 Q 105.615 -15.03 105.278 -15.03 Q 105.081 -15.03 104.856 -15.114 Q 104.415 -15.264 104.265 -15.264 Q 104.04 -15.264 103.731 -15.002 Q 103.15 -14.514 102.344 -13.117 L 103.112 -9.892 Q 103.29 -9.152 103.412 -9.006 Q 103.534 -8.861 103.656 -8.861 Q 103.853 -8.861 104.115 -9.077 Q 104.631 -9.508 104.997 -10.202 L 105.325 -10.033 Q 104.734 -8.927 103.825 -8.196 Q 103.309 -7.783 102.953 -7.783 Q 102.428 -7.783 102.119 -8.374 Q 101.922 -8.739 101.303 -11.524 Q 99.84 -8.983 98.959 -8.252 Q 98.387 -7.783 97.853 -7.783 Q 97.478 -7.783 97.169 -8.055 Q 96.944 -8.261 96.944 -8.608 Q 96.944 -8.917 97.15 -9.124 Q 97.356 -9.33 97.656 -9.33 Q 97.956 -9.33 98.294 -9.03 Q 98.537 -8.814 98.669 -8.814 Q 98.781 -8.814 98.959 -8.964 Q 99.4 -9.321 100.159 -10.502 Q 100.919 -11.683 101.153 -12.208 Q 100.572 -14.486 100.525 -14.617 Q 100.309 -15.227 99.962 -15.48 Q 99.615 -15.733 98.94 -15.733 Q 98.725 -15.733 98.444 -15.714 L 98.444 -16.052 Z" style="white-space: pre;"/>
  <path d="M -159.292 36.221 L -153.592 23.218 L -153.274 23.218 L -147.892 36.221 L -159.292 36.221 Z M -150.133 35.424 L -153.93 26.087 L -158.036 35.424 L -150.133 35.424 Z" style="white-space: pre;"/>
  <path d="M -144.312 27.737 C -144.099 28.099 -143.952 28.438 -143.871 28.754 C -143.79 29.069 -143.708 29.69 -143.627 30.615 L -143.215 35.227 C -142.84 34.777 -142.296 34.065 -141.584 33.09 C -141.24 32.615 -140.815 31.968 -140.309 31.149 C -140.002 30.649 -139.815 30.299 -139.746 30.099 C -139.709 29.999 -139.69 29.896 -139.69 29.79 C -139.69 29.721 -139.712 29.665 -139.756 29.621 C -139.799 29.577 -139.913 29.525 -140.098 29.466 C -140.282 29.407 -140.435 29.297 -140.557 29.138 C -140.679 28.979 -140.74 28.796 -140.74 28.59 C -140.74 28.333 -140.665 28.127 -140.515 27.971 C -140.365 27.815 -140.177 27.737 -139.952 27.737 C -139.677 27.737 -139.443 27.851 -139.249 28.079 C -139.056 28.307 -138.959 28.621 -138.959 29.021 C -138.959 29.515 -139.128 30.079 -139.465 30.713 C -139.802 31.348 -140.452 32.321 -141.415 33.634 C -142.378 34.946 -143.543 36.377 -144.912 37.927 C -145.855 38.996 -146.555 39.669 -147.012 39.948 C -147.468 40.226 -147.859 40.365 -148.184 40.365 C -148.377 40.365 -148.548 40.291 -148.695 40.144 C -148.842 39.997 -148.915 39.827 -148.915 39.634 C -148.915 39.39 -148.813 39.168 -148.61 38.968 C -148.407 38.768 -148.187 38.668 -147.949 38.668 C -147.824 38.668 -147.721 38.696 -147.64 38.752 C -147.59 38.783 -147.535 38.872 -147.476 39.019 C -147.417 39.166 -147.362 39.265 -147.312 39.315 C -147.281 39.346 -147.243 39.362 -147.199 39.362 C -147.162 39.362 -147.096 39.331 -147.002 39.268 C -146.659 39.055 -146.259 38.718 -145.802 38.255 C -145.202 37.643 -144.758 37.143 -144.471 36.755 L -144.996 30.812 C -145.083 29.831 -145.215 29.234 -145.39 29.021 C -145.565 28.808 -145.858 28.702 -146.271 28.702 C -146.402 28.702 -146.637 28.721 -146.974 28.759 L -147.059 28.412 L -144.312 27.737 Z" style="white-space: pre;"/>
  <ellipse style="stroke: rgb(0, 0, 0); fill: rgb(255, 253, 253);" rx="6" ry="6"/>
  <line style="fill: none; stroke: rgb(183, 183, 183);" x1="221.721" y1="-4.216" x2="229.776" y2="-0.191" transform="matrix(-1, 0, 0, -1, 451.496994, -4.407)"/>
  <line style="fill: none; stroke: rgb(183, 183, 183);" x1="221.978" y1="4.454" x2="229.639" y2="0.031" transform="matrix(-1, 0, 0, -1, 451.617004, 4.485)"/>
  <path d="M -62.948 6.621 Q -60.504 6.621 -60.504 9.97 Q -60.504 11.991 -61.493 14.448 Q -62.482 16.904 -63.752 18.117 Q -65.022 19.33 -66.366 19.33 Q -67.465 19.33 -68.155 18.394 Q -68.845 17.458 -68.845 16.06 Q -68.845 15.164 -68.449 13.582 Q -68.054 12 -67.263 10.387 Q -66.472 8.774 -65.281 7.698 Q -64.09 6.621 -62.948 6.621 Z M -62.403 12.598 Q -61.814 10.743 -61.814 8.994 Q -61.814 6.99 -62.948 6.99 Q -63.941 6.99 -64.899 8.489 Q -65.857 9.987 -66.657 12.598 Z M -66.824 13.098 Q -67.632 15.621 -67.632 16.966 Q -67.632 17.845 -67.272 18.403 Q -66.911 18.961 -66.199 18.961 Q -65.611 18.961 -65.092 18.491 Q -64.574 18.02 -63.879 16.579 Q -63.185 15.138 -62.57 13.098 Z" style="white-space: pre;"/>
</svg>