<?xml version="1.0" encoding="utf-8"?>
<svg viewBox="-240 -160 480 320" xmlns="http://www.w3.org/2000/svg">
  <rect style="fill: rgb(255, 255, 255);" x="-240" y="-160" width="480" height="320"/>
  <line style="fill: none; stroke: rgb(183, 183, 183);" x1="-5.116" y1="142.507" x2="-0.13" y2="149.585"/>
  <line style="fill: none; stroke: rgb(183, 183, 183);" x1="0.077" y1="149.646" x2="4.434" y2="142.291" transform="matrix(-1, 0, 0, -1, 4.511, 291.936996)"/>
  <ellipse style="fill: none; stroke: rgb(183, 183, 183);" rx="200" ry="115"/>
  <line style="fill: none; stroke: rgb(183, 183, 183);" x1="0" y1="-150" x2="0" y2="150"/>
  <line style="fill: none; stroke: rgb(183, 183, 183);" x1="-230" y1="0" x2="230" y2="0"/>
  <line style="fill: none; stroke: rgb(183, 183, 183);" x1="-165.237" y1="64.652" x2="0" y2="0"/>
  <path d="M -48.25 18.835 C -52.553 13.246 -55 6.828 -55 0.003" style="fill: none; stroke: rgb(183, 183, 183);"/>
  <rect style="fill: none; stroke: rgb(183, 183, 183);" x="-165.016" width="364.995" height="115.175"/>
  <path d="M 200.084 0.131 C 200.084 63.644 110.541 115.131 0.084 115.131 C -68.661 115.131 -129.305 95.188 -165.304 64.815" style="fill: none; stroke: rgb(239, 125, 33); stroke-width: 4px;"/>
  <polygon points="-7.661 105.924 10.96 114.899 -7.661 123.874" style="fill: rgb(239, 125, 33);"/>
  <ellipse style="stroke: rgb(0, 0, 0); fill: rgb(255, 253, 253);" cx="-164.582" cy="63.762" rx="6" ry="6"/>
  <ellipse style="stroke: rgb(0, 0, 0); fill: rgb(255, 253, 253);" cx="199.958" rx="6" ry="6"/>
  <path d="M 7.169 57.019 L 10.403 56.494 L 9.053 61.05 C 10.147 59.181 11.141 57.875 12.035 57.131 C 12.541 56.706 12.953 56.494 13.272 56.494 C 13.479 56.494 13.641 56.555 13.76 56.676 C 13.879 56.798 13.938 56.975 13.938 57.206 C 13.938 57.619 13.832 58.012 13.619 58.387 C 13.469 58.668 13.253 58.809 12.972 58.809 C 12.829 58.809 12.705 58.762 12.602 58.669 C 12.499 58.575 12.435 58.431 12.41 58.237 C 12.397 58.118 12.369 58.04 12.325 58.003 C 12.275 57.953 12.216 57.928 12.147 57.928 C 12.041 57.928 11.941 57.953 11.847 58.003 C 11.684 58.09 11.438 58.334 11.107 58.734 C 10.588 59.347 10.025 60.14 9.419 61.115 C 9.156 61.528 8.931 61.993 8.744 62.512 C 8.481 63.225 8.331 63.653 8.294 63.797 L 7.994 64.978 L 6.56 64.978 L 8.294 59.156 C 8.494 58.481 8.594 58 8.594 57.712 C 8.594 57.6 8.547 57.506 8.453 57.431 C 8.328 57.331 8.163 57.281 7.957 57.281 C 7.826 57.281 7.585 57.309 7.235 57.365 L 7.169 57.019 Z M 16.739 56.494 C 16.952 56.856 17.099 57.195 17.18 57.511 C 17.261 57.826 17.343 58.447 17.424 59.372 L 17.836 63.984 C 18.211 63.534 18.755 62.822 19.467 61.847 C 19.811 61.372 20.236 60.725 20.742 59.906 C 21.049 59.406 21.236 59.056 21.305 58.856 C 21.342 58.756 21.361 58.653 21.361 58.547 C 21.361 58.478 21.339 58.422 21.295 58.378 C 21.252 58.334 21.138 58.282 20.953 58.223 C 20.769 58.164 20.616 58.054 20.494 57.895 C 20.372 57.736 20.311 57.553 20.311 57.347 C 20.311 57.09 20.386 56.884 20.536 56.728 C 20.686 56.572 20.874 56.494 21.099 56.494 C 21.374 56.494 21.608 56.608 21.802 56.836 C 21.995 57.064 22.092 57.378 22.092 57.778 C 22.092 58.272 21.923 58.836 21.586 59.47 C 21.249 60.105 20.599 61.078 19.636 62.39 C 18.673 63.703 17.508 65.134 16.139 66.684 C 15.196 67.753 14.496 68.426 14.039 68.705 C 13.583 68.983 13.192 69.122 12.867 69.122 C 12.674 69.122 12.503 69.048 12.356 68.901 C 12.209 68.754 12.136 68.584 12.136 68.39 C 12.136 68.147 12.238 67.925 12.441 67.725 C 12.644 67.525 12.864 67.425 13.102 67.425 C 13.227 67.425 13.33 67.453 13.411 67.509 C 13.461 67.54 13.516 67.629 13.575 67.776 C 13.634 67.923 13.689 68.022 13.739 68.072 C 13.77 68.103 13.808 68.119 13.852 68.119 C 13.889 68.119 13.955 68.088 14.049 68.025 C 14.392 67.812 14.792 67.475 15.249 67.012 C 15.849 66.4 16.293 65.9 16.58 65.512 L 16.055 59.569 C 15.968 58.588 15.836 57.991 15.661 57.778 C 15.486 57.565 15.193 57.459 14.78 57.459 C 14.649 57.459 14.414 57.478 14.077 57.515 L 13.992 57.169 L 16.739 56.494 Z" style="white-space: pre;"/>
  <path d="M 91.114 -15.967 L 94.349 -16.492 L 92.999 -11.936 Q 94.639 -14.739 95.98 -15.855 Q 96.739 -16.492 97.217 -16.492 Q 97.527 -16.492 97.705 -16.31 Q 97.883 -16.127 97.883 -15.78 Q 97.883 -15.161 97.564 -14.599 Q 97.339 -14.177 96.917 -14.177 Q 96.702 -14.177 96.547 -14.317 Q 96.392 -14.458 96.355 -14.749 Q 96.336 -14.927 96.27 -14.983 Q 96.195 -15.058 96.092 -15.058 Q 95.933 -15.058 95.792 -14.983 Q 95.549 -14.852 95.052 -14.252 Q 94.274 -13.333 93.364 -11.871 Q 92.97 -11.252 92.689 -10.474 Q 92.295 -9.405 92.239 -9.189 L 91.939 -8.008 L 90.505 -8.008 L 92.239 -13.83 Q 92.539 -14.842 92.539 -15.274 Q 92.539 -15.442 92.399 -15.555 Q 92.211 -15.705 91.902 -15.705 Q 91.705 -15.705 91.18 -15.621 Z M 100.947 -16.492 Q 101.406 -16.005 101.64 -15.517 Q 101.809 -15.18 102.194 -13.746 L 103.019 -14.983 Q 103.347 -15.433 103.815 -15.841 Q 104.284 -16.249 104.64 -16.399 Q 104.865 -16.492 105.137 -16.492 Q 105.54 -16.492 105.779 -16.277 Q 106.019 -16.061 106.019 -15.752 Q 106.019 -15.396 105.878 -15.264 Q 105.615 -15.03 105.278 -15.03 Q 105.081 -15.03 104.856 -15.114 Q 104.415 -15.264 104.265 -15.264 Q 104.04 -15.264 103.731 -15.002 Q 103.15 -14.514 102.344 -13.117 L 103.112 -9.892 Q 103.29 -9.152 103.412 -9.006 Q 103.534 -8.861 103.656 -8.861 Q 103.853 -8.861 104.115 -9.077 Q 104.631 -9.508 104.997 -10.202 L 105.325 -10.033 Q 104.734 -8.927 103.825 -8.196 Q 103.309 -7.783 102.953 -7.783 Q 102.428 -7.783 102.119 -8.374 Q 101.922 -8.739 101.303 -11.524 Q 99.84 -8.983 98.959 -8.252 Q 98.387 -7.783 97.853 -7.783 Q 97.478 -7.783 97.169 -8.055 Q 96.944 -8.261 96.944 -8.608 Q 96.944 -8.917 97.15 -9.124 Q 97.356 -9.33 97.656 -9.33 Q 97.956 -9.33 98.294 -9.03 Q 98.537 -8.814 98.669 -8.814 Q 98.781 -8.814 98.959 -8.964 Q 99.4 -9.321 100.159 -10.502 Q 100.919 -11.683 101.153 -12.208 Q 100.572 -14.486 100.525 -14.617 Q 100.309 -15.227 99.962 -15.48 Q 99.615 -15.733 98.94 -15.733 Q 98.725 -15.733 98.444 -15.714 L 98.444 -16.052 Z" style="white-space: pre;"/>
  <path d="M -191.292 96.221 L -185.592 83.218 L -185.274 83.218 L -179.892 96.221 L -191.292 96.221 Z M -182.133 95.424 L -185.93 86.087 L -190.036 95.424 L -182.133 95.424 Z" style="white-space: pre;"/>
  <path d="M -176.312 87.737 C -176.099 88.099 -175.952 88.438 -175.871 88.754 C -175.79 89.069 -175.708 89.69 -175.627 90.615 L -175.215 95.227 C -174.84 94.777 -174.296 94.065 -173.584 93.09 C -173.24 92.615 -172.815 91.968 -172.309 91.149 C -172.002 90.649 -171.815 90.299 -171.746 90.099 C -171.709 89.999 -171.69 89.896 -171.69 89.79 C -171.69 89.721 -171.712 89.665 -171.756 89.621 C -171.799 89.577 -171.913 89.525 -172.098 89.466 C -172.282 89.407 -172.435 89.297 -172.557 89.138 C -172.679 88.979 -172.74 88.796 -172.74 88.59 C -172.74 88.333 -172.665 88.127 -172.515 87.971 C -172.365 87.815 -172.177 87.737 -171.952 87.737 C -171.677 87.737 -171.443 87.851 -171.249 88.079 C -171.056 88.307 -170.959 88.621 -170.959 89.021 C -170.959 89.515 -171.128 90.079 -171.465 90.713 C -171.802 91.348 -172.452 92.321 -173.415 93.634 C -174.378 94.946 -175.543 96.377 -176.912 97.927 C -177.855 98.996 -178.555 99.669 -179.012 99.948 C -179.468 100.226 -179.859 100.365 -180.184 100.365 C -180.377 100.365 -180.548 100.291 -180.695 100.144 C -180.842 99.997 -180.915 99.827 -180.915 99.634 C -180.915 99.39 -180.813 99.168 -180.61 98.968 C -180.407 98.768 -180.187 98.668 -179.949 98.668 C -179.824 98.668 -179.721 98.696 -179.64 98.752 C -179.59 98.783 -179.535 98.872 -179.476 99.019 C -179.417 99.166 -179.362 99.265 -179.312 99.315 C -179.281 99.346 -179.243 99.362 -179.199 99.362 C -179.162 99.362 -179.096 99.331 -179.002 99.268 C -178.659 99.055 -178.259 98.718 -177.802 98.255 C -177.202 97.643 -176.758 97.143 -176.471 96.755 L -176.996 90.812 C -177.083 89.831 -177.215 89.234 -177.39 89.021 C -177.565 88.808 -177.858 88.702 -178.271 88.702 C -178.402 88.702 -178.637 88.721 -178.974 88.759 L -179.059 88.412 L -176.312 87.737 Z" style="white-space: pre;"/>
  <ellipse style="stroke: rgb(0, 0, 0); fill: rgb(255, 253, 253);" rx="6" ry="6"/>
  <line style="fill: none; stroke: rgb(183, 183, 183);" x1="221.721" y1="-4.216" x2="229.776" y2="-0.191" transform="matrix(-1, 0, 0, -1, 451.496994, -4.407)"/>
  <line style="fill: none; stroke: rgb(183, 183, 183);" x1="221.978" y1="4.454" x2="229.639" y2="0.031" transform="matrix(-1, 0, 0, -1, 451.617004, 4.485)"/>
  <path d="M -65.295 20.689 L -66.252 20.689 L -65.117 16.808 Q -66.477 16.799 -67.222 15.988 Q -67.967 15.177 -67.967 13.761 Q -67.967 11.605 -66.627 9.88 Q -65.286 8.155 -63.28 8.099 L -63.383 8.436 Q -64.639 8.642 -65.572 10.489 Q -66.505 12.336 -66.505 14.108 Q -66.505 16.246 -64.986 16.311 L -63.72 12.121 Q -63.242 10.499 -62.858 9.706 Q -62.474 8.914 -61.911 8.506 Q -61.349 8.099 -60.711 8.099 Q -59.811 8.099 -59.314 8.863 Q -58.817 9.627 -58.817 10.883 Q -58.817 13.152 -60.219 14.938 Q -61.62 16.724 -64.199 16.817 Z M -64.03 16.302 Q -62.155 16.18 -61.133 14.356 Q -60.111 12.533 -60.111 10.63 Q -60.111 9.008 -60.936 9.008 Q -61.433 9.008 -61.827 9.608 Q -62.22 10.208 -62.849 12.336 Z" style="white-space: pre;"/>
</svg>