<?xml version="1.0" encoding="utf-8"?>
<svg viewBox="0 0 584.4 178.401" width="584.4" height="178.401" xmlns="http://www.w3.org/2000/svg">
  <path d="M352,92.8c0.263,2.399,0.4,5.601,0.4,9.601c0,17.6-3.069,28-9.2,31.199c-6.138,3.2-12.138,6.263-18,9.2 c-6.4,3.462-12.8,8.263-19.2,14.399c-13.338,13.332-23.6,20-30.8,20c-3.738,0-6.669-1.6-8.8-4.799 c-2.137-3.201-3.2-7.069-3.2-11.601c0-6.938,1.862-15.2,5.6-24.8c2.932-6.938,6.131-12.938,9.6-18 c-8.269,4.262-18.668,11.463-31.2,21.6c-16.269,13.863-26,21.863-29.2,24c-10.4,7.463-19.337,11.2-26.8,11.2 c-5.6,0-9.938-2.2-13-6.601c-3.069-4.399-4.6-9.668-4.6-15.799c0-6.4,1.6-12.938,4.8-19.601c-4.538,2.663-8.938,5.2-13.2,7.601 c-7.2,4.262-13.6,8.662-19.2,13.199c-5.869,5.063-11.869,10.131-18,15.2c-7.2,5.862-12.938,8.8-17.2,8.8 c-3.737,0-6.938-1.469-9.6-4.4c-2.938-3.469-4.4-8-4.4-13.6c0-9.068,3.332-20.269,10-33.6c3.463-6.4,7.063-12.801,10.8-19.2 c-4.8,2.663-9.069,4-12.8,4c-4,0-7.4-2.138-10.2-6.399c-2.8-4.27-5.269-6.4-7.4-6.4c-2.4,0-4.869,1.463-7.4,4.4 c-2.537,2.931-3.8,5.199-3.8,6.799c0,3.463,2.663,7.063,8,10.801c4.531,2.932,9.063,5.862,13.6,8.8c0,2.931-0.669,6.8-2,11.601 c-2.4-1.069-4.8-2.4-7.2-4c-4.269-1.869-7.737-2.801-10.4-2.801c-7.469,0-15.469,3.063-24,9.2 c-6.938,5.862-13.869,11.731-20.8,17.601c-7.738,6.131-14.538,9.199-20.4,9.199c-3.469,0-6.469-1.338-9-4 c-2.537-2.668-3.8-6.668-3.8-12c0-5.869,2.131-12.269,6.4-19.199c1.063-1.338,4.8-6,11.2-14l1.2,1.199 c-9.337,11.463-14,20.263-14,26.4c0,6.932,2.932,10.4,8.8,10.4c5.862,0,15.2-5.738,28-17.201c12-10.399,22.8-16,32.4-16.799 c-1.069-4.801-1.6-8.801-1.6-12c0-5.338,1.2-11.069,3.6-17.201C78.931,87.737,82.663,84,87.2,84c2.131,0,4.8,2.668,8,8 c3.2,5.331,6.531,8,10,8c3.2,0,8.8-1.6,16.8-4.801c4.531-1.861,9.2-3.861,14-6L124.8,86c-5.068-1.6-8.668-2.4-10.8-2.4 c-1.337,0-2.4,0.4-3.2,1.2h-16v-1.6c0-3.731,1.6-6.8,4.8-9.2c2.4-2.131,5.331-3.2,8.8-3.2c4.263,0,9.332,1.2,15.2,3.6 c8.8,2.938,14.4,4.8,16.8,5.6c10.931,2.668,22.4,4,34.4,4c0,0.538-0.8,2.538-2.4,6c-1.6,3.469-2.668,5.199-3.2,5.199 c-5.6-1.063-10.8-1.6-15.6-1.6c-3.738,0-9.2,1.4-16.4,4.2c-7.2,2.8-12.4,5.399-15.6,7.8c-2.138,2.131-5.738,8.4-10.8,18.801 c-6.4,13.33-9.6,24.131-9.6,32.399c0,2.931,0.931,5.263,2.8,7c1.862,1.731,4.131,2.601,6.8,2.601c2.932,0,7.731-2.801,14.4-8.4 c4.8-4.27,9.6-8.537,14.4-12.801c5.862-4.268,15.331-10.268,28.4-18c8.8-5.068,13.731-8.938,14.8-11.6 c-0.269-3.469-0.668-7.199-1.2-11.199L168.8,22.8c-0.269-1.063-0.8-2.6-1.6-4.6c-0.8-2-1.2-3.531-1.2-4.6L169.6,0L182,24.8v4 l-6-5.6l10.8,69.6c0.531,3.2,0.8,6.931,0.8,11.2c0,12-1.869,20.662-5.6,26c-3.737,5.331-5.6,11.331-5.6,18 c0,4.262,1.263,7.932,3.8,11c2.531,3.063,5.8,4.6,9.8,4.6c8,0,21.331-7.869,40-23.6c21.6-18.138,36.8-28.938,45.6-32.4 c-0.538-0.537-4.4-3.469-11.6-8.8c-5.337-3.731-8-7.731-8-12c0-5.6,1.862-9.462,5.6-11.6c2.663-1.331,6.931-2,12.8-2 c4.8,0,14.4,1.338,28.8,4c16.263,3.2,27.063,4.938,32.399,5.2c0,0.8-0.6,2.8-1.8,6c-1.2,3.2-2.068,4.938-2.6,5.2 c-11.737,4.531-24.669,10.131-38.8,16.801c2.662,4,4,7.73,4,11.199c0,1.332-0.4,3-1.2,5s-1.601,3-2.4,3 c-0.537,0-2.337-1.269-5.4-3.8c-3.069-2.538-5.4-4.737-7-6.601c-1.869,1.863-4.269,6.264-7.2,13.201 c-3.469,8.531-5.2,16.399-5.2,23.6c0,6.4,2.931,9.6,8.8,9.6c4.531,0,12.932-6.137,25.2-18.4c5.6-5.6,15.2-11.868,28.8-18.799 c10.932-5.069,16.663-9.338,17.2-12.801c-0.269-3.469-0.8-7.199-1.6-11.199L334,22.8c-0.269-1.063-0.8-2.6-1.6-4.6 c-0.801-2-1.2-3.531-1.2-4.6L334.4,0l12.8,24.8v4l-6-5.6L352,92.8z M28.8,88c-6.668,7.199-10,13.063-10,17.6 c0,3.463,1.063,5.2,3.2,5.2c0.531,0,1.063-0.2,1.6-0.601c0.531-0.399,0.931-0.736,1.2-1L25.6,110c-2.669,6.932-5.337,10.4-8,10.4 c-3.2,0-4.8-2-4.8-6c0-4.801,1.8-10.069,5.4-15.801c3.6-5.73,7-9.4,10.2-11L28.8,88z M65.6,110.4c0,3.199-0.669,4.799-2,4.799 c-1.869,0-4.269-1.199-7.2-3.6c-1.337,3.2-3.6,6.932-6.8,11.2c-7.738,9.862-19.469,15.862-35.2,18V140 c13.063-4.801,24-11.6,32.8-20.4c2.931-2.938,6-6.8,9.2-11.6c2.131-3.738,3.6-5.6,4.4-5.6c1.332,0,2.531,1.199,3.6,3.6 C65.2,108.131,65.6,109.6,65.6,110.4z M66.4,64.8c0,2.138-0.8,4.269-2.4,6.4c-1.069-1.6-2.138-2.4-3.2-2.4 c-2.137,0-3.737,2.938-4.8,8.8c-0.8,4.269-1.6,8.4-2.4,12.4c-0.8-2.931-2.8-7.332-6-13.2c-0.538,2.4-1.738,3.6-3.6,3.6 c-1.337,0-2.6-0.6-3.8-1.8c-1.2-1.2-1.8-2.6-1.8-4.2c0-4.263,1.6-6.4,4.8-6.4c3.731,0,7.063,4.269,10,12.8 c2.4-14.931,5.731-22.4,10-22.4C65.331,58.4,66.4,60.538,66.4,64.8z M84,152.8c0,0.8-0.469,2.663-1.4,5.601 c-0.938,2.931-1.8,4.799-2.6,5.6c-4.538-2.4-8.269-4.138-11.2-5.2c-1.068,4-2.269,6.931-3.6,8.8c-5.6-3.199-9.6-5.068-12-5.6 c1.331-3.2,2.662-6.938,4-11.2c4.262,1.063,8.262,2.8,12,5.2c1.063-2.669,2.131-5.6,3.2-8.801C77.2,148.531,81.063,150.4,84,152.8z M64,110.8c-0.8-1.601-1.869-2.8-3.2-3.601c-0.8,0-1.469,0.4-2,1.201C59.862,109.463,61.6,110.262,64,110.8z M95.6,33.6 c-0.8,2.137-2.938,5.2-6.4,9.2c-0.8,0.8-3.2,2.069-7.2,3.8c-4,1.737-7.069,2.6-9.2,2.6c-1.068,0-2.269-0.4-3.6-1.2 c8-2.4,13.331-4.931,16-7.6c-2.669-1.063-5.6-1.6-8.8-1.6c-0.538,0-1.069,0.138-1.6,0.4c-0.537,0.269-1.068,0.4-1.6,0.4 c0-7.463,3.462-10.663,10.4-9.6C87.331,30.269,91.331,31.469,95.6,33.6z M157.6,23.6l-1.2,5.2c-26.4,5.069-48,16.4-64.8,34l0.4-6.4 C109.6,38.538,131.462,27.6,157.6,23.6z M150.8,122.4c-0.8,3.199-2.537,6.131-5.2,8.799c-2.669,2.663-5.469,4-8.4,4 c-5.338,0-8-2.537-8-7.6c0-2.137,2.531-6.4,7.6-12.8c-0.8,0-1.6,0-2.4,0c-2.668,0-5.069,0.931-7.2,2.8l1.6-4.8 c2.663-2.399,5.063-3.601,7.2-3.601c2.663,0,5.2,0.264,7.6,0.801l-2.4,4.8c-1.6,1.063-3.469,2.731-5.6,5 c-2.138,2.263-3.2,4.2-3.2,5.8c0,2.131,2,3.2,6,3.2C143.2,128.8,147.331,126.662,150.8,122.4z M154,52.8c0,5.6-2,8.4-6,8.4 c-1.869,0-3.737-0.931-5.6-2.8c-1.337,3.737-3.6,5.6-6.8,5.6c-2.669,0-4.269-2-4.8-6c-0.269-3.2-0.4-6.4-0.4-9.6 c-0.8,1.337-1.6,2.938-2.4,4.8v-2.8c0.531-1.6,1.2-3.063,2-4.4c1.063-2.131,2.531-3.731,4.4-4.8c-1.337,10.138-0.4,15.2,2.8,15.2 c2.4,0,3.6-1.731,3.6-5.2c0-1.331-0.537-4.262-1.6-8.8l2.4-4c1.331,2.138,2.262,5.469,2.8,10c0.263,3.469,1.462,5.2,3.6,5.2 c1.6,0,2.4-1.063,2.4-3.2l-2-9.2l2.4-5.2C152.931,42.4,154,48,154,52.8z M171.2,143.199c-6.938,7.201-10.4,13.201-10.4,18 c0,3.201,1.063,4.801,3.2,4.801c0.531,0,1.063-0.2,1.6-0.6c0.531-0.4,0.931-0.601,1.2-0.601l0.8,0.399 c-2.669,7.201-5.337,10.801-8,10.801c-3.2,0-4.8-2.138-4.8-6.4c0-4.537,1.8-9.737,5.4-15.6c3.6-5.869,7.131-9.6,10.6-11.2 L171.2,143.199z M202.4,115.199C195.462,122.131,192,128,192,132.8c0,3.2,1.063,4.8,3.2,4.8c0.8,0,1.4-0.199,1.8-0.6 s0.731-0.6,1-0.6l0.8,0.799c-2.668,6.932-5.337,10.4-8,10.4c-3.2,0-4.8-2.137-4.8-6.4c0-4.537,1.8-9.736,5.4-15.6 c3.6-5.869,7.131-9.6,10.6-11.199L202.4,115.199z M215.2,113.199c0,5.601-1.338,11.463-4,17.601h-2c0.531-7.2,0-16-1.6-26.399 L194.8,22.8c-0.269-1.063-0.8-2.6-1.6-4.6c-0.8-2-1.2-3.531-1.2-4.6L195.6,0L208,24.8v4l-6-5.6l12.8,80.8 C215.063,105.862,215.2,108.932,215.2,113.199z M247.2,71.2c0,2.938-0.869,5.738-2.6,8.4c-1.738,2.668-3.938,4-6.6,4 c-4.269,0-6.4-2.4-6.4-7.2c0-1.063,0.862-4.331,2.6-9.8c1.731-5.463,2.6-10.063,2.6-13.8c0-6.663-2.668-12-8-16 c0-0.262-0.4-4.262-1.2-12c3.731,2.4,6.8,5.869,9.2,10.4c2.4,4.538,3.6,8.8,3.6,12.8c0,4.538-0.538,8.269-1.6,11.2 C244.4,61.069,247.2,65.069,247.2,71.2z M243.6,103.199c0,0.801-0.538,2.601-1.6,5.4c-1.069,2.801-1.869,4.731-2.4,5.801 c-5.869-3.201-9.869-5.069-12-5.601c1.063-3.469,2.4-7.2,4-11.2C236.4,98.932,240.4,100.8,243.6,103.199z M245.6,72.4 c-1.6-2.931-4.4-5.063-8.4-6.4c-1.869,2.137-2.8,4.269-2.8,6.4c0,2.938,1.332,4.4,4,4.4C240.8,76.8,243.2,75.337,245.6,72.4z M259.6,140.4c-6.938,7.199-10.4,13.063-10.4,17.6c0,3.463,1.2,5.199,3.6,5.199c0.263,0,0.731-0.199,1.4-0.6c0.662-0.4,1-0.737,1-1 l0.8,0.801c-2.4,7.199-5.069,10.799-8,10.799c-3.2,0-4.8-2.137-4.8-6.399c0-4.538,1.862-9.868,5.6-16 c3.731-5.601,7.2-9.337,10.4-11.2L259.6,140.4z M327.6,18.8L323.2,26c-13.069,2.668-25.938,7.2-38.6,13.6 C271.931,46,261.462,53.469,253.2,62l3.6-8.8c8-8,18.663-15.331,32-22C302.131,24.538,315.063,20.4,327.6,18.8z M282.8,12 c-0.8,2.137-2.938,5.069-6.4,8.8c-0.8,0.8-3.2,2-7.2,3.6s-7.069,2.4-9.2,2.4c-0.8,0-1.869-0.262-3.2-0.8 c7.731-2.4,12.932-4.931,15.6-7.6c-2.668-0.8-5.6-1.2-8.8-1.2c-0.269,0-0.738,0.069-1.4,0.2c-0.669,0.138-1.138,0.2-1.4,0.2 c0-7.2,3.332-10.4,10-9.6C274.531,8.538,278.531,9.869,282.8,12z M312.8,90.8c-16.269-3.731-29.6-5.6-40-5.6 c-5.337,0-9.469,0.4-12.4,1.2c7.2,4.268,12.263,7.469,15.2,9.6c1.862,1.862,4.531,4.262,8,7.199L312.8,90.8z M318,56.4 c0,5.6-2,8.4-6,8.4c-1.6,0-3.469-1.063-5.6-3.2c-1.069,3.737-3.2,5.6-6.4,5.6c-2.938,0-4.669-2-5.2-6c0-2.931,0-6,0-9.2 c-0.8,1.337-1.737,2.938-2.8,4.8V54c0.531-1.6,1.2-3.063,2-4.4c1.331-2.131,2.8-3.731,4.4-4.8c-1.069,9.869,0,14.8,3.199,14.8 c2.4,0,3.601-1.6,3.601-4.8c0-1.6-0.538-4.531-1.601-8.8l2.4-4c1.331,1.869,2.263,5.2,2.8,10c0,3.469,1.2,5.2,3.601,5.2 c1.6,0,2.399-1.063,2.399-3.2c0-0.263-0.8-3.332-2.399-9.2l2.8-5.2C317.063,46,318,51.6,318,56.4z M326.4,121.6 c-0.801,3.2-2.538,6.063-5.2,8.6c-2.669,2.531-5.469,3.801-8.4,3.801c-5.068,0-7.6-2.4-7.6-7.2c0-2.399,2.399-6.669,7.2-12.8 c-0.801,0-1.601,0-2.4,0c-2.938,0-5.338,0.8-7.2,2.4l1.601-4.4c2.662-2.669,5.063-4,7.199-4c2.663,0,5.332,0.4,8,1.199L316.8,114 c-1.6,0.8-3.469,2.4-5.6,4.8c-2.138,2.399-3.2,4.399-3.2,6c0,2.132,2,3.2,6,3.2C318.8,128,322.932,125.862,326.4,121.6z M359.6,140 c-6.668,6.932-10,12.8-10,17.6c0,3.463,1.2,5.2,3.601,5.2c0.263,0,1.063-0.538,2.399-1.601l0.801,0.4 c-2.669,7.2-5.338,10.801-8,10.801c-3.2,0-4.801-2.139-4.801-6.4c0-4.537,1.863-9.738,5.601-15.6 c3.731-5.869,7.2-9.601,10.399-11.201V140z M378.4,113.199c0,5.601-1.338,11.463-4,17.601H372.8c0.263-7.2-0.537-16-2.399-26.399 L358,22.8c-0.269-1.063-0.8-2.6-1.6-4.6c-0.801-2-1.2-3.531-1.2-4.6L358.8,0l12.4,24.8v4l-5.601-5.6l12,80.8 C378.131,105.862,378.4,108.932,378.4,113.199z M580.4,100.4c0,4.531-0.801,8.662-2.4,12.399c-2.4,4.8-5.469,7.2-9.2,7.2 c-1.868,0-4.2-0.869-7-2.6c-2.8-1.738-4.6-3.538-5.399-5.4c-0.538,1.331-1.601,3.063-3.2,5.199c-2.669,2.932-5.737,4.4-9.2,4.4 c-2.669,0-4.4-0.668-5.2-2c-1.068-2.137-2.269-4-3.6-5.6c-5.869,5.862-10.8,8.8-14.8,8.8c-4.27,0-7.601-1.469-10-4.399 c-1.069-0.801-2.538-3.201-4.4-7.201c-1.068-2.668-2.537-4-4.4-4c-2.668,0-4.938,1.732-6.8,5.201c-1.6,2.662-2.399,4.662-2.399,6 c0,4.799,6.931,10.662,20.8,17.6c0.531,0.262,0.531,2.262,0,6c-0.8,3.463-1.469,5.331-2,5.6c-2.669-1.068-5.2-2.137-7.601-3.199 c-2.938-1.338-5.469-2-7.6-2c-7.469,0-15.6,2.931-24.4,8.799c-6.938,5.332-14,10.801-21.199,16.4 c-7.738,5.863-14.138,8.801-19.2,8.801c-3.2,0-6.269-1.601-9.2-4.801c-3.469-3.469-5.2-7.6-5.2-12.4 c0-8.799,4.531-18.268,13.601-28.399c0-0.269-0.538-1.069-1.601-2.399c-1.068-1.338-1.6-2.67-1.6-4h-0.8 c-2.4,7.199-4.669,12.131-6.801,14.799c-2.938,3.463-6.8,5.201-11.6,5.201c-11.2,0-16.8-9.069-16.8-27.201 c0-2.938,0.131-6.399,0.399-10.399l0.4-4.8c-1.869,2.662-3.2,7.463-4,14.4c-0.537,5.6-1.2,11.063-2,16.399 c-1.6,9.063-4.4,13.601-8.4,13.601c-5.337,0-9.469-4.67-12.399-14c-2.138-6.938-3.2-13.469-3.2-19.601c0-5.601,0.4-9.2,1.2-10.8 c0,0.262,0.263,0.8,0.8,1.6c-0.269,4.801,0.263,10.662,1.6,17.6c1.863,10.4,5.063,15.601,9.601,15.601c2.131,0,4-1.737,5.6-5.2 c1.063-2.938,1.601-5.6,1.601-8c0.531-3.737,1.199-9.068,2-16c0.262-2.938,1.6-7,4-12.199c2.399-5.201,4.662-8.863,6.8-11 c1.063,0,2,1.138,2.8,3.4c0.8,2.269,1.2,4.069,1.2,5.399c-2.4,10.663-3.601,18.4-3.601,23.201c0,3.73,0.801,7.199,2.4,10.399 c2.131,4,5.2,6,9.2,6c4.531,0,8.462-1.538,11.8-4.601c3.331-3.068,5-6.736,5-11c0-3.736-1.269-9.6-3.8-17.6 c-2.538-8-3.8-12.8-3.8-14.4c0,0.269,0.662-2.531,2-8.4c0.262,0,0.931,0.138,2,0.4c4,5.338,7.73,17.869,11.199,37.6 c0.801,3.2,2.663,6,5.601,8.399c2.931,2.4,5.862,3.601,8.8,3.601c3.463,0,6.131-1.069,8-3.2c-1.338-4.8-4.4-13.338-9.2-25.6 c-4.269-11.462-6.399-17.332-6.399-17.6c0-0.263,0.662-3.462,2-9.6c1.331,1.337,5.331,5.869,12,13.6v2c-0.801,0-2.538-0.663-5.2-2 c7.731,18.131,11.6,29.462,11.6,34c0,4.799-1.068,9.063-3.2,12.799c-2.399,4.531-6,6.801-10.8,6.801c-5.068,0-9.068-1.738-12-5.2 c-2.669,2.399-5.2,5.862-7.6,10.399c-3.469,5.601-5.2,10.264-5.2,14c0,2.4,0.731,4.663,2.2,6.801 c1.462,2.131,3.662,3.199,6.6,3.199c3.731,0,11.2-4.268,22.4-12.799c14.931-10.938,22.8-16.67,23.6-17.201 c2.663-1.337,4.8-2.399,6.4-3.199c2.662-1.068,5.331-1.6,8-1.6c0-1.338-0.2-3.4-0.601-6.201c-0.399-2.799-0.6-4.337-0.6-4.6 c0-4.8,1.6-10.137,4.8-16c3.463-6.4,7.2-9.6,11.2-9.6c1.331,0,3.531,2.531,6.6,7.6c3.063,5.063,7,7.6,11.801,7.6 c4.8,0,8.399-1.337,10.8-4c4.8-5.068,7.6-8,8.399-8.799c0.263,0.262,0.2,1.262-0.199,3c-0.4,1.73-0.601,3-0.601,3.799 c0,3.732,1.731,5.601,5.2,5.601c3.463,0,6-1.601,7.6-4.8c2.663-5.338,4.531-8.537,5.601-9.6c0.531,3.73,1.862,6.73,4,9 c2.131,2.262,4.399,3.399,6.8,3.399c1.331,0,2.932-0.669,4.8-2v-1.601c-2.938-6.668-6.938-16.531-12-29.599 c-0.537-1.863-1.337-3.863-2.399-6c-0.27-0.8-0.669-1.8-1.2-3c-0.538-1.2-0.8-2.063-0.8-2.6c0-0.531,0.531-2.2,1.6-5 c1.063-2.8,1.731-4.462,2-5c1.331,1.337,5.2,6.538,11.6,15.6c-0.537,0.8-0.668,1.337-0.399,1.6l-4.8-2 c-0.27,0.269-0.4,0.538-0.4,0.8C576.263,84.938,580.4,95.068,580.4,100.4z M404,158c-5.338,12.531-12.138,18.8-20.4,18.8 c-4.269,0-6.399-2.8-6.399-8.399c0-1.338,2.131-3.27,6.399-5.801c4.263-2.537,6.531-4.737,6.801-6.6 c-2.938-0.537-4.538-1.469-4.801-2.801c-0.269-1.337,0.063-3.068,1-5.199c0.932-2.138,1.801-3.338,2.601-3.6l-1.2-2l0.4-1.201 c1.063,0,2.8,0.531,5.199,1.601v0.8c2.132,1.332,4.4,3.731,6.801,7.2c0.8,4,0,6.132-2.4,6.399c-1.6,0.264-3.469,0.132-5.6-0.399 c-0.27,3.2-1.738,5.862-4.4,8c-2.669,1.331-5.6,3.331-8.8,6c0.8,0.8,2.662,1.2,5.6,1.2c3.463,0,7.331-2,11.601-6 c2.931-2.938,5.199-5.738,6.8-8.4L404,158z M397.2,31.2c-7.737,8-11.601,14.669-11.601,20c0,3.738,1.332,5.6,4,5.6 c0.531,0,1.063-0.262,1.601-0.8c0.531-0.531,0.931-0.8,1.2-0.8l0.8,0.8c-2.938,8-5.869,12-8.8,12c-3.738,0-5.601-2.4-5.601-7.2 c0-5.063,2-11.063,6-18c4.263-6.4,8.263-10.663,12-12.8L397.2,31.2z M392.8,148.8c-0.269-1.069-0.938-1.469-2-1.2 c-1.6,0.263-2.669,1.063-3.2,2.4c1.332,1.331,2.663,2,4,2C392.4,150.662,392.8,149.6,392.8,148.8z M398.8,152.8 c-1.068-0.8-2.537-2-4.399-3.601L394,152.8c0.8,0.531,1.862,0.663,3.2,0.399C397.731,153.199,398.263,153.063,398.8,152.8z M426.8,59.2c0,5.869-2,8.8-6,8.8c-1.6,0-3.469-1.063-5.6-3.2c-1.069,3.738-3.2,5.6-6.4,5.6c-2.938,0-4.669-2-5.2-6 c0-2.931,0-6,0-9.2c-0.8,1.338-1.737,2.938-2.8,4.8v-3.2c0.531-1.331,1.2-2.8,2-4.4c1.331-2.131,2.8-3.731,4.4-4.8 c-1.069,9.869-0.138,14.8,2.8,14.8c2.4,0,3.6-1.6,3.6-4.8c0-1.332-0.399-4.263-1.199-8.8l2.399-4c1.331,2.138,2.132,5.6,2.4,10.4 c0.263,3.2,1.462,4.8,3.6,4.8c1.862,0,2.8-0.931,2.8-2.8c0-0.262-0.8-3.331-2.399-9.2l2.399-5.6 C425.731,48.8,426.8,54.4,426.8,59.2z M415.2,28c0,5.869-1.2,12.269-3.601,19.2c0.531-4,0.801-8.131,0.801-12.4 c0-8.8-2.669-15.6-8-20.4l0.8-9.2c3.2,2.4,5.731,6.138,7.6,11.2C414.4,20.668,415.2,24.538,415.2,28z M458,42.8 c-0.8,2.138-2.8,4.938-6,8.4c-0.8,1.069-3.2,2.338-7.2,3.8c-4,1.469-6.938,2.2-8.8,2.2c-1.068,0-2.269-0.131-3.6-0.4 c7.73-2.4,12.931-4.931,15.6-7.6c-2.669-1.063-5.469-1.6-8.4-1.6c-0.537,0-1.137,0.137-1.8,0.4c-0.669,0.269-1.138,0.4-1.399,0.4 c0-7.2,3.331-10.4,10-9.6C450.131,39.337,454,40.668,458,42.8z M477.2,113.199c0,6.932-0.938,12.801-2.8,17.601h-3.2 c0.531-7.2,0-16-1.601-26.399L456.8,22.8c-0.269-1.063-0.8-2.6-1.6-4.6s-1.2-3.531-1.2-4.6L457.6,0L470,24.8v4l-6-5.6l12.8,80.8 C477.063,105.862,477.2,108.932,477.2,113.199z M492,145.6c-6.938,6.932-10.4,12.801-10.4,17.6c0,3.463,1.2,5.201,3.601,5.201 c0.263,0,0.731-0.27,1.399-0.801c0.663-0.537,1.132-0.8,1.4-0.8l0.4,0.8c-2.4,7.2-4.938,10.801-7.601,10.801 c-3.469,0-5.2-2.27-5.2-6.801c0-4.537,1.863-9.737,5.601-15.6c3.731-5.869,7.2-9.6,10.399-11.2L492,145.6z M501.6,34.4 c-7.737,8-11.6,14.8-11.6,20.4c0,3.738,1.2,5.6,3.6,5.6c0.531,0,1.132-0.263,1.801-0.8c0.662-0.531,1.131-0.8,1.399-0.8l0.8,0.4 c-2.938,8.269-5.868,12.4-8.8,12.4c-3.737,0-5.6-2.531-5.6-7.6c0-5.063,2.063-10.931,6.2-17.6c4.131-6.663,8.063-10.931,11.8-12.8 L501.6,34.4z M549.6,139.199c0.263,2.132,0,4.132-0.8,6c-0.8,1.863-1.868,2.801-3.2,2.801c-1.6,0-2.8-0.669-3.6-2 c-1.869,2.662-3.469,4-4.8,4c-0.8,0-1.938-0.338-3.4-1c-1.469-0.669-2.6-1-3.399-1c-0.538,0-2.4,1.73-5.601,5.199 c-3.737,4.531-8.138,8.132-13.2,10.801c-4.269,2.4-10,4-17.199,4.8V168.4c10.662-4.538,20-10.27,28-17.201 c6.662-5.6,10.399-8.399,11.199-8.399c0.801,0,1.663,0.331,2.601,1c0.931,0.663,1.662,1,2.2,1c1.6,0,3.462-1.601,5.6-4.8l0.4,0.8 c-0.801,1.601-0.4,2.399,1.199,2.399c1.601,0,2.663-1.199,3.2-3.6L549.6,139.199z M541.2,32.4c0,1.869-0.669,3.869-2,6 c-1.338-1.331-2.538-2-3.601-2c-1.868,0-3.337,2.669-4.399,8c-0.8,4-1.469,8.138-2,12.4c-1.069-3.2-3.069-7.462-6-12.8 c-0.538,2.4-1.737,3.6-3.601,3.6c-1.068,0-2.199-0.6-3.399-1.8c-1.2-1.2-1.8-2.6-1.8-4.2c0-4.263,1.462-6.4,4.399-6.4 c3.731,0,6.932,4.269,9.601,12.8c2.399-14.663,5.6-22,9.6-22C540.131,26,541.2,28.137,541.2,32.4z M547.6,67.6 c-0.8,2.137-2.8,5.068-6,8.8c-0.8,0.538-3.199,1.669-7.199,3.4c-4,1.738-6.938,2.6-8.801,2.6c-0.8,0-1.868-0.263-3.199-0.8 c7.462-2.4,12.531-4.932,15.199-7.6c-2.399-0.8-5.199-1.2-8.399-1.2c-0.538,0-1.069,0.069-1.601,0.2 c-0.537,0.137-1.068,0.2-1.6,0.2c0-7.2,3.331-10.262,10-9.2C539.731,64.269,543.6,65.469,547.6,67.6z M584.4,145.199l-2,6.4 c-17.069,3.463-30.938,10.801-41.601,22l1.601-7.199C553.6,154.662,567.6,147.6,584.4,145.199z M575.2,132.4 c0,1.063-0.538,3-1.601,5.799c-1.068,2.801-1.868,4.601-2.399,5.4c-5.869-2.938-9.869-4.668-12-5.199 c1.063-3.469,2.399-7.338,4-11.601C568,128.131,572,130,575.2,132.4z"/>
</svg>