<?xml version="1.0" encoding="utf-8"?>
<svg version="1.1" id="Layer_1" x="0px" y="0px" width="1800px" height="450px" viewBox="0 0 1800 450" enable-background="new 0 0 1800 450" xmlns="http://www.w3.org/2000/svg">
  <path fill="#FFFFFF" stroke="#BDBEC0" stroke-width="10" stroke-miterlimit="10" d="M 1784.205 381.149 C 1784.205 408.763 1761.82 431.149 1734.205 431.149 L 65.794 431.149 C 38.18 431.149 15.794 408.763 15.794 381.149 L 15.794 70.17 C 15.794 42.556 38.18 20.17 65.794 20.17 L 1734.205 20.17 C 1761.82 20.17 1784.205 42.556 1784.205 70.17 L 1784.205 381.149 L 1784.205 381.149 Z"/>
  <path class="st0" d="M 1010.249 290.319 L 1009.924 290.319 C 1010.086 290.319 1010.086 290.482 1010.249 290.482 L 1010.411 290.482 L 1010.249 290.319 Z M 1010.249 290.482 C 1008.95 290.482 1005.538 291.132 1001.963 291.132 C 990.753 291.132 986.855 285.933 986.855 279.109 L 986.855 233.945 L 1009.762 233.945 C 1011.061 233.945 1012.036 232.808 1012.036 231.183 L 1012.036 206.652 C 1012.036 205.351 1010.898 204.215 1009.762 204.215 L 986.855 204.215 L 986.855 173.671 C 986.855 172.535 986.042 171.884 984.743 171.884 L 953.55 171.884 C 952.25 171.884 951.6 172.697 951.6 173.671 L 951.6 205.027 C 951.6 205.027 935.841 208.926 934.866 209.088 C 933.729 209.413 933.079 210.389 933.079 211.525 L 933.079 231.183 C 933.079 232.808 934.217 233.945 935.517 233.945 L 951.438 233.945 L 951.438 281.384 C 951.438 316.638 975.97 320.213 992.703 320.213 C 1000.339 320.213 1009.599 317.776 1011.061 316.963 C 1011.874 316.638 1012.361 315.664 1012.361 314.689 L 1012.361 293.082 C 1012.361 291.782 1011.549 290.807 1010.249 290.482 Z M 1352.395 258.802 C 1352.395 232.646 1341.835 229.234 1330.787 230.371 C 1322.177 230.859 1315.191 235.245 1315.191 235.245 L 1315.191 286.096 C 1315.191 286.096 1322.177 290.97 1332.737 291.294 C 1347.52 291.619 1352.395 286.258 1352.395 258.802 Z M 1387.486 256.527 C 1387.486 306.078 1371.403 320.213 1343.46 320.213 C 1319.74 320.213 1307.067 308.19 1307.067 308.19 C 1307.067 308.19 1306.58 314.851 1305.768 315.664 C 1305.28 316.476 1304.631 316.801 1303.656 316.801 L 1282.373 316.801 C 1280.911 316.801 1279.612 315.664 1279.612 314.364 L 1279.936 154.013 C 1279.936 152.714 1281.074 151.577 1282.373 151.577 L 1313.079 151.577 C 1314.379 151.577 1315.516 152.714 1315.516 154.013 L 1315.516 208.439 C 1315.516 208.439 1327.375 200.803 1344.759 200.803 L 1344.596 200.478 C 1361.818 200.478 1387.486 206.976 1387.486 256.527 Z M 1261.578 204.377 L 1231.198 204.377 C 1229.573 204.377 1228.761 205.514 1228.761 207.139 L 1228.761 285.608 C 1228.761 285.608 1220.801 291.132 1209.915 291.132 C 1199.193 291.132 1195.943 286.258 1195.943 275.373 L 1195.943 206.814 C 1195.943 205.514 1194.806 204.377 1193.506 204.377 L 1162.638 204.377 C 1161.339 204.377 1160.201 205.514 1160.201 206.814 L 1160.201 280.734 C 1160.201 312.414 1177.91 320.375 1202.279 320.375 C 1222.424 320.375 1238.671 309.328 1238.671 309.328 C 1238.671 309.328 1239.483 315.014 1239.808 315.826 C 1240.133 316.476 1241.108 317.125 1242.083 317.125 L 1261.416 317.125 C 1263.04 317.125 1263.853 315.989 1263.853 314.689 L 1264.178 206.814 C 1264.34 205.514 1263.04 204.377 1261.578 204.377 Z M 919.432 204.215 L 888.727 204.215 C 887.427 204.215 886.29 205.514 886.29 207.139 L 886.29 313.065 C 886.29 315.989 888.239 316.963 890.677 316.963 L 918.458 316.963 C 921.382 316.963 922.032 315.664 922.032 313.065 L 922.032 206.652 C 921.869 205.351 920.732 204.215 919.432 204.215 Z M 904.161 155.313 C 893.114 155.313 884.179 164.087 884.179 175.296 C 884.179 186.344 892.951 195.279 904.161 195.279 C 915.046 195.279 923.819 186.506 923.819 175.296 C 923.819 164.249 915.046 155.313 904.161 155.313 Z M 1142.33 151.739 L 1111.788 151.739 C 1110.488 151.739 1109.351 152.877 1109.351 154.176 L 1109.351 213.15 L 1061.587 213.15 L 1061.587 154.176 C 1061.587 152.877 1060.45 151.739 1059.15 151.739 L 1028.444 151.739 C 1027.145 151.739 1026.008 152.877 1026.008 154.176 L 1026.008 314.526 C 1026.008 315.826 1027.308 316.963 1028.444 316.963 L 1059.15 316.963 C 1060.45 316.963 1061.587 315.826 1061.587 314.526 L 1061.587 245.968 L 1109.351 245.968 L 1109.026 314.526 C 1109.026 315.826 1110.163 316.963 1111.463 316.963 L 1142.168 316.963 C 1143.468 316.963 1144.605 315.826 1144.605 314.526 L 1144.605 154.176 C 1144.767 152.877 1143.631 151.739 1142.33 151.739 Z M 869.881 222.735 L 869.881 305.591 C 869.881 306.078 869.719 307.216 869.069 307.378 C 869.069 307.378 851.036 320.213 821.305 320.213 C 785.401 320.213 742.673 309.003 742.673 234.757 C 742.673 160.512 779.878 145.24 816.269 145.403 C 847.786 145.403 860.459 152.552 862.408 153.851 C 862.896 154.664 863.22 155.151 863.22 155.801 L 857.372 181.633 C 857.372 182.932 856.072 184.557 854.447 184.069 C 849.249 182.445 841.45 179.358 823.092 179.358 C 801.81 179.358 779.065 185.369 779.065 233.295 C 779.065 281.059 800.672 286.746 816.269 286.746 C 829.591 286.746 834.302 285.121 834.302 285.121 L 834.302 251.978 L 813.02 251.978 C 811.395 251.978 810.257 250.841 810.257 249.541 L 810.257 222.897 C 810.257 221.598 811.395 220.461 813.02 220.461 L 867.12 220.461 C 868.745 220.298 869.881 221.436 869.881 222.735 Z M 869.881 222.735" style="fill: rgb(36, 41, 46);"/>
  <path class="st1" d="M 536.347 104.3 C 467.95 104.3 412.55 159.7 412.55 228.097 C 412.55 282.846 447.967 329.148 497.193 345.557 C 503.367 346.532 505.804 342.957 505.804 339.709 C 505.804 336.784 505.641 327.036 505.641 316.638 C 474.611 322.325 466.487 309.003 464.05 302.18 C 462.588 298.605 456.577 287.558 451.378 284.633 C 446.992 282.359 440.819 276.51 451.216 276.348 C 460.964 276.185 467.95 285.283 470.224 289.02 C 481.434 307.703 499.143 302.504 506.291 299.255 C 507.428 291.294 510.677 285.77 514.252 282.684 C 486.795 279.597 457.877 268.875 457.877 221.598 C 457.877 208.114 462.751 196.904 470.549 188.294 C 469.249 185.206 465.026 172.535 471.849 155.476 C 471.849 155.476 482.246 152.226 505.966 168.148 C 515.876 165.386 526.436 163.924 536.834 163.924 C 547.394 163.924 557.791 165.386 567.702 168.148 C 591.421 152.064 601.656 155.476 601.656 155.476 C 608.48 172.535 604.093 185.206 602.955 188.294 C 610.916 196.904 615.628 207.951 615.628 221.598 C 615.628 269.037 586.709 279.597 559.091 282.684 C 563.64 286.583 567.539 293.894 567.539 305.591 C 567.539 322.162 567.376 335.484 567.376 339.546 C 567.376 342.795 569.651 346.694 575.824 345.394 C 626.188 328.336 660.143 281.059 660.143 227.934 C 660.143 159.7 604.743 104.3 536.347 104.3 Z M 536.347 104.3" style="clip-rule: evenodd; fill: rgb(36, 41, 46); fill-rule: evenodd;"/>
</svg>