<?xml version="1.0" standalone="no"?>
<!DOCTYPE svg PUBLIC "-//W3C//DTD SVG 20010904//EN"
 "http://www.w3.org/TR/2001/REC-SVG-20010904/DTD/svg10.dtd">
<svg version="1.0" xmlns="http://www.w3.org/2000/svg"
 width="1081.000000pt" height="1077.000000pt" viewBox="0 0 1081.000000 1077.000000"
 preserveAspectRatio="xMidYMid meet">

<g transform="translate(0.000000,1077.000000) scale(0.100000,-0.100000)"
fill="#000000" stroke="none">
<path d="M4441 10628 c-24 -11 -96 -38 -159 -59 -62 -22 -131 -48 -153 -58
-22 -11 -54 -23 -72 -26 -18 -4 -36 -11 -42 -15 -9 -6 -104 -41 -300 -109 -33
-11 -114 -41 -180 -67 -66 -25 -167 -63 -225 -84 -58 -21 -128 -48 -155 -60
-28 -12 -66 -29 -85 -37 -19 -8 -44 -18 -55 -23 -11 -5 -67 -29 -125 -54 -58
-25 -169 -76 -246 -114 -131 -65 -144 -74 -186 -129 -55 -73 -81 -114 -75
-119 3 -4 148 53 242 96 62 27 163 68 510 205 176 69 379 150 450 179 72 29
164 65 205 80 41 15 84 32 95 37 11 5 124 49 250 99 l230 91 62 64 c34 35 69
78 78 95 14 28 14 30 -2 29 -10 0 -38 -10 -62 -21z"/>
<path d="M5850 10441 c-37 -12 -111 -30 -235 -56 -60 -13 -153 -36 -205 -50
-93 -25 -206 -55 -440 -117 -150 -39 -166 -44 -225 -63 -27 -9 -70 -22 -95
-30 -256 -74 -926 -292 -1015 -330 -33 -15 -434 -165 -450 -169 -15 -4 -43
-16 -103 -42 -29 -13 -56 -24 -61 -24 -5 0 -30 -9 -57 -21 -58 -24 -64 -27
-174 -72 -47 -20 -121 -52 -165 -72 -44 -20 -89 -40 -100 -45 -11 -5 -42 -19
-70 -31 -157 -68 -680 -328 -818 -406 -42 -24 -123 -68 -180 -97 -173 -91
-251 -141 -270 -173 -26 -45 -66 -166 -89 -268 -23 -106 -35 -336 -20 -413 11
-61 22 -41 -143 -263 -238 -320 -358 -534 -406 -723 -53 -208 -50 -408 9 -562
l19 -51 -64 -109 c-211 -363 -333 -687 -365 -974 -21 -188 18 -435 90 -574 68
-131 262 -308 423 -387 35 -17 72 -35 81 -40 10 -5 23 -9 30 -9 41 -1 39 -16
-17 -161 -121 -309 -138 -357 -162 -439 -59 -209 -76 -335 -70 -530 5 -160 17
-224 61 -336 59 -150 202 -319 358 -424 115 -77 324 -113 449 -77 68 20 177
95 308 213 25 22 67 55 92 72 l47 31 6 -31 c3 -17 6 -72 7 -122 1 -184 28
-424 61 -546 11 -41 24 -88 28 -105 21 -82 97 -260 133 -310 124 -174 167
-219 269 -288 149 -100 252 -139 493 -186 90 -18 374 -25 510 -12 66 6 183 18
260 28 77 9 167 17 200 17 l59 1 7 -35 c3 -19 12 -69 19 -110 23 -142 72 -303
119 -395 39 -75 64 -108 156 -200 109 -109 145 -134 290 -196 99 -42 259 -52
355 -21 55 17 152 67 192 100 130 105 348 326 500 507 180 215 207 246 320
376 199 229 403 418 578 534 103 68 327 186 540 285 74 34 169 78 210 97 169
79 200 94 320 143 69 29 148 62 175 74 28 13 102 42 165 65 63 24 136 51 162
62 26 10 53 19 61 19 7 0 24 -19 37 -43 95 -174 157 -264 241 -348 48 -49 93
-89 99 -89 6 0 23 -9 38 -20 83 -62 282 -91 452 -67 108 15 152 26 277 70 200
71 331 185 418 363 26 55 51 107 56 116 17 34 52 176 67 273 23 144 22 498 -1
675 -42 315 -60 455 -82 645 -8 72 -22 182 -30 245 -8 63 -20 160 -25 215 -6
55 -17 154 -25 220 -8 66 -19 167 -25 225 -6 58 -15 128 -20 155 -5 28 -16
109 -24 180 -9 72 -21 162 -26 200 -5 39 -19 151 -30 250 -12 99 -23 196 -25
215 -3 19 -7 62 -11 95 -10 106 -63 548 -73 615 -10 60 -17 120 -56 440 -17
144 -31 289 -50 545 -9 110 -20 250 -26 310 -11 120 -28 336 -36 458 -5 78 3
94 29 61 46 -57 117 -128 140 -140 30 -16 44 -5 30 23 -5 10 -13 36 -16 57
-12 65 -105 334 -154 447 -48 110 -105 221 -206 404 -19 35 -59 85 -68 85 -5
0 -12 -10 -17 -22 -5 -13 -25 -57 -44 -99 -44 -94 -61 -157 -54 -206 3 -21 10
-72 16 -113 18 -121 48 -358 81 -650 6 -47 17 -134 25 -195 8 -60 20 -150 25
-200 5 -49 14 -121 20 -160 15 -104 38 -281 46 -355 4 -36 8 -72 10 -80 4 -22
21 -165 38 -320 15 -130 38 -312 56 -450 5 -36 11 -85 15 -110 3 -25 10 -81
16 -125 6 -44 17 -129 24 -190 8 -60 21 -164 30 -230 8 -66 20 -160 25 -210 5
-49 19 -162 30 -250 12 -88 26 -196 31 -240 10 -92 15 -124 34 -255 7 -52 18
-133 24 -180 6 -47 16 -119 21 -160 6 -41 15 -115 20 -165 6 -49 13 -108 15
-130 3 -22 10 -80 15 -130 5 -49 16 -144 25 -210 8 -66 19 -172 25 -235 5 -63
14 -149 20 -190 16 -126 30 -250 40 -365 5 -60 14 -150 20 -200 31 -289 33
-311 22 -332 -14 -25 -156 -137 -222 -175 -55 -31 -197 -90 -265 -109 -67 -19
-388 -20 -407 -1 -6 6 -21 12 -32 12 -31 0 -157 66 -214 113 -52 43 -127 134
-137 169 -5 13 18 42 93 115 189 186 296 376 347 613 8 41 20 94 25 118 34
148 -37 465 -143 642 -44 72 -137 183 -175 208 -29 19 -174 44 -211 36 -135
-28 -192 -62 -265 -159 -68 -91 -110 -180 -141 -301 -46 -176 -43 -454 6 -714
26 -137 40 -207 49 -235 5 -16 12 -46 15 -65 l6 -36 -73 -36 c-86 -42 -253
-120 -392 -183 -22 -10 -92 -39 -155 -65 -181 -74 -418 -177 -506 -220 -416
-202 -698 -409 -952 -697 -123 -140 -266 -309 -314 -373 -15 -19 -35 -44 -46
-55 -10 -11 -54 -63 -98 -115 -231 -277 -410 -438 -623 -558 -303 -172 -561
-31 -677 368 -21 71 -29 124 -33 211 -6 145 1 161 84 195 32 13 62 24 66 24
18 0 482 207 558 249 8 4 38 20 65 36 28 15 93 51 145 80 159 88 307 185 500
328 91 67 323 294 345 338 9 16 19 29 23 29 13 0 100 151 137 238 50 120 65
195 65 332 0 122 -8 180 -40 285 -17 56 -74 197 -104 255 -168 332 -153 297
-212 503 -8 27 44 22 119 -13 63 -30 108 -33 123 -9 6 10 -64 93 -240 285 -61
67 -148 162 -194 213 -46 50 -89 91 -95 91 -18 -1 -62 -69 -79 -125 -9 -27
-23 -90 -33 -140 l-16 -90 51 -115 c29 -63 61 -135 72 -160 34 -76 278 -586
298 -621 5 -9 29 -68 55 -130 25 -63 50 -123 55 -134 36 -77 80 -209 80 -241
0 -42 -299 -303 -545 -474 -20 -14 -42 -29 -48 -35 -29 -24 -107 -75 -176
-115 -41 -23 -90 -54 -110 -67 -34 -23 -409 -212 -516 -260 -28 -13 -95 -43
-150 -69 -98 -45 -194 -84 -206 -84 -24 0 -7 127 36 266 37 116 153 346 213
419 112 138 172 237 172 285 0 29 -21 55 -172 212 -22 22 -16 36 26 68 104 80
347 313 519 500 l97 105 46 -48 c25 -26 56 -54 68 -62 20 -14 24 -13 39 3 20
22 31 73 23 105 -3 13 -24 45 -47 71 l-42 48 12 81 c34 217 21 303 -62 393
-43 48 -53 54 -89 54 -71 0 -149 -75 -178 -173 -6 -23 -16 -52 -21 -65 -12
-31 -11 -148 1 -193 10 -35 68 -98 116 -125 19 -11 18 -12 -5 -55 -38 -69
-121 -174 -226 -289 -100 -110 -136 -145 -278 -274 l-87 -78 -40 21 c-22 12
-49 21 -59 21 -41 0 -197 -199 -208 -264 -5 -32 1 -40 121 -159 69 -69 126
-132 126 -140 0 -8 -11 -37 -24 -64 -28 -54 -31 -61 -131 -308 -40 -99 -82
-211 -95 -250 -52 -164 -57 -171 -113 -193 -78 -30 -143 -48 -237 -65 -175
-32 -221 -37 -368 -37 -479 0 -881 175 -1065 462 -133 209 -187 423 -187 740
l0 147 62 73 c79 92 148 162 217 218 30 25 68 57 85 72 17 15 59 44 93 64 34
20 68 43 74 50 6 8 15 14 20 14 5 0 32 15 61 34 57 36 183 97 288 141 36 14
79 33 97 41 17 8 37 14 45 14 8 0 18 4 23 9 6 4 87 34 180 65 94 31 177 60
185 65 9 5 31 12 50 16 19 4 41 11 50 16 8 5 80 29 160 54 391 123 732 296
901 457 66 62 131 156 147 213 34 119 42 174 42 295 0 332 -153 657 -492 1043
-43 48 -78 92 -78 97 0 14 27 12 53 -2 25 -13 254 -177 310 -222 184 -148 417
-353 637 -560 58 -55 127 -120 154 -145 27 -25 91 -86 142 -136 174 -171 363
-337 454 -398 14 -9 48 -32 75 -52 28 -20 75 -48 105 -64 165 -85 199 -101
245 -117 28 -9 55 -20 61 -25 7 -5 14 -38 17 -72 3 -34 13 -123 22 -197 9 -74
20 -169 25 -210 5 -41 14 -133 20 -205 6 -71 15 -175 21 -230 6 -55 13 -234
16 -398 3 -164 9 -294 14 -290 6 7 39 104 83 250 9 29 20 78 25 110 5 32 19
119 32 193 20 125 22 169 23 585 l1 449 80 29 c189 68 353 150 454 227 174
133 249 253 322 515 18 64 19 372 2 470 -20 110 -34 204 -44 285 -4 41 -16
122 -24 180 -9 58 -22 155 -30 215 -8 61 -21 166 -30 235 -9 69 -20 163 -25
210 -11 90 -25 189 -41 280 -5 30 -14 93 -19 140 -6 47 -17 130 -25 185 -8 55
-20 141 -25 190 -6 50 -15 113 -20 140 -5 28 -16 111 -25 185 -8 74 -20 164
-25 200 -5 36 -15 101 -21 145 -6 44 -15 105 -20 135 -4 30 -15 105 -23 165
-34 247 -46 335 -61 440 -21 140 -40 297 -60 505 -12 126 -17 390 -8 390 12 0
135 -90 176 -128 17 -16 31 -22 36 -16 12 11 -6 98 -42 205 -25 77 -175 393
-207 439 -10 14 -49 81 -87 150 -132 237 -121 226 -149 157 -22 -55 -48 -145
-65 -227 -14 -65 4 -224 77 -660 33 -198 45 -279 54 -350 5 -41 16 -122 25
-180 9 -58 23 -157 30 -220 8 -63 22 -169 30 -235 9 -66 20 -154 25 -195 9
-79 33 -250 50 -360 6 -36 15 -101 20 -145 5 -44 17 -127 25 -185 8 -58 33
-247 55 -420 22 -173 43 -328 45 -345 3 -16 12 -79 20 -140 8 -60 18 -128 21
-150 40 -280 55 -393 63 -460 5 -44 17 -134 26 -200 21 -162 33 -257 50 -405
8 -69 19 -163 25 -210 19 -149 40 -354 40 -397 0 -51 -23 -81 -123 -156 -88
-67 -169 -108 -273 -140 -156 -48 -225 -57 -288 -37 -17 5 -43 12 -57 15 -15
2 -30 13 -34 22 -5 10 -14 77 -21 148 -8 72 -18 171 -24 220 -5 50 -16 155
-24 235 -9 80 -22 195 -31 255 -9 61 -20 146 -26 190 -5 44 -16 127 -24 185
-8 58 -20 143 -25 190 -6 47 -16 130 -24 185 -8 55 -19 145 -26 200 -6 55 -15
127 -20 160 -5 33 -12 89 -15 125 -3 36 -10 90 -15 120 -5 30 -16 116 -25 190
-8 74 -20 162 -25 195 -6 33 -14 105 -20 160 -5 55 -14 142 -20 192 -6 51 -10
114 -8 139 l3 46 26 -23 c30 -27 142 -117 172 -138 19 -13 20 -12 14 10 -3 13
-12 54 -21 91 -30 136 -93 297 -184 477 -51 101 -103 198 -115 215 -12 17 -29
44 -38 61 -9 17 -34 58 -56 93 -40 63 -40 63 -55 40 -9 -13 -30 -55 -47 -93
-18 -39 -37 -80 -43 -92 -7 -15 -7 -44 0 -100 6 -43 14 -121 17 -173 3 -52 10
-122 15 -155 15 -96 29 -213 40 -315 5 -52 16 -151 25 -220 8 -69 22 -183 30
-255 35 -312 53 -452 65 -520 5 -27 12 -79 15 -115 3 -36 10 -87 15 -115 5
-27 16 -108 25 -180 8 -71 20 -159 25 -195 6 -36 15 -108 20 -160 6 -52 15
-131 20 -175 17 -151 52 -470 60 -555 23 -226 40 -390 46 -442 6 -53 5 -58
-12 -58 -41 0 -203 91 -327 184 -69 51 -111 87 -423 364 -232 206 -264 234
-415 363 -202 172 -242 205 -334 278 -44 36 -147 121 -230 190 -82 70 -183
153 -224 186 -41 33 -117 95 -170 138 -53 43 -98 82 -99 87 -5 13 71 46 162
72 177 49 526 38 681 -22 249 -97 331 -143 492 -278 29 -24 56 -41 61 -38 21
12 32 102 32 249 0 212 -6 228 -113 298 -158 104 -351 292 -441 430 -16 24
-37 55 -46 69 -68 101 -176 379 -235 605 -30 117 -61 313 -71 448 -8 115 -9
114 101 68 39 -17 72 -26 73 -20 3 7 -340 712 -354 728 -8 9 -36 -25 -56 -68
-77 -169 -94 -289 -73 -522 16 -189 39 -324 90 -529 9 -36 20 -81 24 -100 21
-86 79 -296 118 -425 53 -178 103 -378 103 -417 l0 -38 -167 0 c-185 0 -370
-27 -518 -76 -107 -35 -197 -69 -264 -100 -41 -19 -79 -34 -85 -34 -6 0 -39
22 -73 48 -34 26 -91 67 -127 92 -36 25 -101 70 -144 100 -42 31 -120 85 -172
121 -100 70 -240 167 -353 246 -38 26 -93 64 -122 83 -30 19 -102 69 -162 112
-113 80 -214 150 -348 243 -44 30 -107 74 -140 98 -82 59 -194 136 -355 246
-219 148 -354 245 -354 256 -1 16 80 67 304 187 41 23 80 44 85 49 25 19 496
249 510 249 5 0 88 37 180 80 33 15 114 49 180 75 66 26 143 57 170 70 28 12
100 41 160 65 61 24 205 80 320 125 116 46 248 97 295 115 89 33 397 153 440
171 31 13 83 31 180 59 41 12 140 44 220 70 80 26 181 59 225 73 44 14 154 51
244 82 90 31 207 67 260 80 53 13 119 31 148 39 55 18 100 27 233 52 147 26
223 33 414 35 186 2 186 2 226 -25 40 -26 90 -93 90 -120 0 -8 5 -18 10 -21 6
-3 10 -28 10 -55 0 -57 -38 -135 -103 -214 -76 -92 -170 -200 -227 -261 -31
-33 -81 -87 -111 -120 -30 -33 -89 -97 -131 -143 -220 -236 -372 -463 -432
-645 -33 -98 -34 -123 -3 -82 19 25 137 170 209 255 12 14 78 86 147 160 140
151 300 331 355 400 74 92 173 227 206 280 19 30 37 57 40 60 27 25 183 324
202 385 58 195 65 312 23 394 -56 112 -196 182 -360 180 -44 0 -91 -4 -105 -8z
m-4608 -2693 c46 -34 85 -65 88 -68 3 -3 23 -19 45 -35 60 -45 580 -440 750
-570 83 -62 206 -157 275 -210 69 -53 234 -178 366 -278 133 -100 246 -189
252 -198 8 -12 -14 -38 -112 -129 -66 -62 -189 -179 -272 -259 -83 -80 -171
-164 -195 -185 -24 -22 -116 -107 -204 -190 -290 -274 -309 -292 -404 -372
-156 -132 -255 -214 -281 -231 -14 -10 -40 -30 -58 -45 -18 -16 -66 -50 -105
-76 -40 -27 -95 -64 -123 -84 -143 -101 -365 -225 -437 -244 -186 -50 -387 40
-475 213 -78 152 -107 368 -74 553 28 152 92 342 185 550 140 314 120 283 262
400 184 151 315 318 364 465 45 132 18 138 -95 20 -91 -95 -118 -110 -164 -94
-51 18 -87 112 -96 249 -12 171 57 362 215 600 116 174 192 280 201 280 5 0
46 -28 92 -62z m2200 -1728 c40 -34 95 -80 123 -103 27 -23 72 -60 100 -82
213 -167 498 -455 666 -675 147 -193 289 -461 289 -545 -1 -48 -426 -307 -645
-393 -44 -18 -96 -40 -201 -87 -17 -8 -115 -46 -219 -85 -104 -39 -202 -77
-219 -84 -17 -7 -56 -22 -86 -34 -190 -71 -235 -88 -325 -127 -328 -141 -559
-266 -785 -427 -109 -77 -193 -150 -300 -262 -430 -446 -504 -505 -668 -537
-138 -26 -277 14 -358 104 -80 89 -142 226 -175 387 -12 60 -7 256 9 355 22
131 102 399 153 512 10 23 19 44 19 47 0 2 26 60 59 128 l58 124 84 34 c100
39 358 172 393 202 6 5 52 37 102 71 118 81 178 126 277 212 45 39 109 93 142
120 81 69 295 265 504 464 315 299 369 348 526 470 178 139 365 268 392 270 6
1 44 -26 85 -59z m1466 -2146 c26 -18 62 -84 62 -113 0 -67 -38 -67 -102 -1
-38 39 -48 57 -48 83 0 19 3 37 7 40 12 12 58 7 81 -9z m3382 -76 c131 -89
240 -294 264 -495 12 -96 0 -127 -73 -200 -66 -66 -101 -92 -196 -145 -111
-62 -166 -88 -175 -83 -17 10 -77 127 -113 220 -53 134 -77 254 -77 389 0 161
27 226 126 304 64 51 69 52 137 47 45 -4 70 -13 107 -37z"/>
<path d="M1800 6934 c-41 -18 -106 -77 -127 -118 -56 -106 -44 -222 33 -326
24 -33 59 -70 79 -82 19 -13 35 -27 35 -32 0 -11 -36 -70 -75 -121 -134 -177
-244 -296 -608 -657 -226 -225 -408 -410 -406 -413 11 -10 396 277 569 425
108 92 297 280 373 370 40 47 74 87 77 90 7 7 88 129 134 203 19 31 38 57 41
57 16 0 66 -42 119 -97 70 -75 86 -72 86 16 0 68 -29 129 -101 212 l-49 55 7
171 c4 124 3 179 -6 200 -24 58 -106 79 -181 47z m89 -210 c27 -22 31 -32 31
-74 0 -27 -5 -52 -11 -55 -33 -21 -139 57 -139 103 0 53 69 69 119 26z"/>
<path d="M2864 5103 c-15 -27 -53 -93 -86 -148 -53 -91 -58 -102 -47 -127 27
-66 304 -298 355 -298 7 0 45 44 86 97 84 112 128 163 140 163 4 0 45 -33 90
-72 191 -169 239 -208 256 -208 31 0 100 68 144 143 23 40 52 86 65 103 13 17
23 37 23 44 0 7 -55 69 -122 138 -122 123 -228 212 -254 212 -20 0 -59 -46
-113 -135 -27 -44 -63 -93 -80 -109 -38 -36 -46 -33 -156 60 -116 98 -236 184
-256 184 -11 0 -29 -19 -45 -47z"/>
<path d="M2328 4603 c-58 -67 -92 -207 -104 -436 -5 -101 -8 -118 -22 -115 -9
2 -64 60 -122 129 -200 239 -286 287 -333 186 -22 -46 -23 -164 -2 -195 9 -12
36 -36 62 -53 41 -29 50 -31 104 -26 l58 5 45 -52 c25 -29 62 -79 84 -112 38
-58 102 -186 102 -205 0 -23 19 4 34 49 25 71 44 176 51 282 10 152 34 329 47
358 20 41 41 37 97 -18 76 -75 102 -65 118 45 4 35 1 49 -23 84 -50 76 -158
117 -196 74z"/>
<path d="M1298 3948 c-9 -13 -25 -46 -37 -73 -12 -28 -26 -59 -31 -70 -5 -11
-19 -54 -31 -95 -12 -41 -25 -84 -29 -95 -15 -38 -35 -170 -35 -225 1 -122 51
-207 133 -229 34 -10 47 -9 71 4 36 18 74 67 90 114 13 40 15 161 2 161 -4 0
-20 -17 -35 -38 -29 -43 -64 -66 -91 -60 -10 1 -27 21 -39 43 -18 35 -21 56
-20 170 1 115 5 146 37 269 20 77 35 141 33 143 -2 2 -10 -7 -18 -19z"/>
<path d="M7829 10037 c-34 -49 -86 -199 -103 -297 -3 -19 -1 -53 5 -75 5 -22
16 -78 24 -125 8 -47 21 -121 29 -165 9 -44 20 -109 26 -145 5 -36 11 -74 14
-85 2 -11 7 -40 10 -65 4 -25 11 -65 16 -90 5 -25 16 -92 25 -150 8 -58 22
-148 31 -200 28 -179 58 -394 90 -655 9 -71 22 -179 30 -240 8 -60 17 -128 19
-150 3 -22 12 -94 20 -160 9 -66 20 -149 25 -185 6 -36 15 -112 20 -170 6 -58
15 -136 20 -175 5 -38 9 -93 10 -121 l0 -52 -202 -194 c-112 -107 -221 -211
-243 -231 -54 -49 -30 -46 74 9 97 52 100 54 269 177 73 53 127 86 132 81 5
-5 16 -41 25 -79 9 -39 20 -88 26 -110 40 -166 77 -529 94 -913 4 -85 11 -150
15 -145 5 4 20 42 34 83 88 258 113 539 87 965 -10 161 -15 204 -42 360 l-11
65 52 57 c48 52 111 131 150 187 28 40 54 57 75 51 57 -19 60 -16 60 65 0 58
7 93 30 155 26 69 29 94 30 185 0 82 -4 114 -19 145 -27 58 -63 103 -95 119
-66 35 -172 -31 -235 -147 -45 -82 -36 -122 65 -289 58 -95 59 -99 44 -126
-36 -64 -112 -172 -129 -184 -18 -12 -34 12 -39 60 -3 26 -12 94 -21 152 -9
58 -21 139 -26 180 -5 41 -16 120 -25 175 -14 95 -38 268 -50 365 -3 25 -10
67 -16 94 -11 59 -45 296 -54 381 -3 33 -10 78 -15 100 -5 22 -13 78 -19 125
-25 195 -52 399 -62 453 -5 31 -7 62 -4 67 3 5 53 -31 111 -82 57 -50 106 -89
109 -87 7 8 -59 272 -74 294 -4 6 -13 28 -20 50 -8 22 -27 68 -42 103 -16 34
-29 65 -29 68 0 8 -119 246 -130 259 -4 6 -29 51 -56 100 -68 128 -98 178
-109 181 -6 2 -17 -7 -26 -19z m820 -2481 c30 -31 32 -37 29 -92 -3 -51 -6
-59 -24 -62 -31 -4 -104 78 -104 118 0 75 45 91 99 36z"/>
<path d="M4931 9475 c-56 -188 -70 -433 -31 -536 11 -30 23 -59 28 -65 17 -26
87 -64 117 -64 69 0 125 113 106 215 -9 47 -21 68 -28 50 -30 -81 -77 -113
-114 -79 -41 37 -62 120 -63 254 -1 69 3 164 7 213 5 48 7 87 4 87 -2 0 -14
-34 -26 -75z"/>
<path d="M6254 9274 c-32 -77 -54 -215 -54 -340 l0 -122 45 -40 c73 -64 138
-66 230 -7 86 55 131 117 156 212 18 73 -4 142 -68 213 -52 58 -102 84 -206
106 -90 19 -86 19 -103 -22z m174 -158 c47 -24 122 -96 122 -117 0 -25 -32
-68 -68 -92 -71 -47 -187 -46 -211 2 -12 23 3 197 18 215 20 24 84 20 139 -8z"/>
<path d="M3330 8967 c-26 -57 -38 -94 -85 -247 -16 -53 -31 -145 -40 -251 -15
-166 43 -282 153 -302 28 -6 38 -1 72 29 58 52 84 129 73 213 l-8 64 -40 -54
c-33 -44 -46 -54 -70 -54 -25 0 -34 7 -54 43 -46 85 -43 267 9 489 30 131 31
133 25 133 -4 0 -19 -28 -35 -63z"/>
<path d="M2395 8750 c-36 -70 -98 -288 -114 -400 -27 -196 -20 -283 26 -363
61 -103 180 -100 234 6 24 46 38 183 21 212 -9 17 -11 16 -25 -12 -24 -46 -73
-93 -97 -93 -31 0 -70 92 -82 193 -9 87 1 186 42 381 11 55 18 101 16 103 -3
3 -12 -9 -21 -27z"/>
<path d="M7447 8563 c-37 -140 -48 -222 -48 -353 1 -163 32 -244 110 -288 95
-53 171 -9 201 117 9 35 -8 151 -22 151 -4 0 -17 -19 -29 -42 -41 -80 -75 -94
-117 -49 -53 58 -67 119 -67 286 0 83 4 178 9 213 12 95 -8 76 -37 -35z"/>
<path d="M9781 8147 c-42 -92 -81 -225 -81 -275 1 -26 8 -65 16 -87 14 -35 30
-130 64 -380 15 -108 20 -143 36 -245 8 -52 19 -124 24 -160 5 -36 16 -112 24
-170 9 -58 21 -145 27 -195 26 -223 72 -556 104 -755 8 -52 20 -129 25 -170 5
-41 16 -122 25 -180 34 -236 74 -544 86 -660 5 -52 13 -147 18 -210 6 -63 15
-151 20 -195 6 -44 17 -190 26 -325 9 -135 20 -294 25 -355 5 -60 12 -150 15
-200 11 -182 29 -375 35 -375 8 0 83 180 114 273 36 106 50 321 42 632 -10
384 -19 512 -71 985 -7 56 -34 256 -41 290 -2 14 -11 72 -18 130 -17 124 -51
368 -66 460 -13 86 -30 192 -40 260 -5 30 -16 102 -24 160 -9 58 -18 119 -21
135 -3 17 -9 68 -15 115 -6 47 -17 141 -26 210 -33 270 -45 490 -26 490 5 0
51 -34 103 -75 92 -73 109 -84 109 -66 0 22 -42 175 -66 237 -25 69 -132 287
-173 354 -11 19 -24 42 -28 50 -3 8 -24 42 -46 75 -61 93 -145 234 -152 256
-10 30 -18 23 -44 -34z"/>
<path d="M3834 8092 c-50 -37 -98 -107 -118 -175 -23 -75 -46 -251 -46 -345 0
-82 -13 -138 -29 -128 -5 3 -43 57 -84 119 -132 200 -212 268 -329 282 -51 6
-57 5 -68 -14 -16 -31 -14 -162 3 -204 23 -54 74 -87 136 -87 104 0 173 -62
262 -233 34 -67 73 -140 87 -161 29 -46 33 -42 63 59 18 60 23 109 29 330 7
240 18 343 41 387 13 25 71 33 105 15 16 -8 46 -31 67 -51 21 -20 41 -36 43
-36 3 0 14 19 24 43 21 46 25 102 11 140 -14 35 -70 75 -116 82 -34 6 -46 2
-81 -23z"/>
<path d="M5652 7905 c-42 -35 -96 -147 -115 -236 -18 -83 -37 -220 -37 -261 0
-16 -2 -28 -4 -28 -2 0 -51 46 -107 103 -107 107 -193 165 -287 194 -100 31
-107 27 -106 -60 1 -103 53 -157 151 -157 116 -1 203 -74 368 -310 l60 -85 5
320 c4 286 7 324 23 354 18 32 21 33 60 27 23 -4 62 -20 87 -36 58 -38 72 -26
71 54 -1 81 -32 120 -113 140 -20 4 -34 0 -56 -19z"/>
<path d="M6667 7038 c-41 -178 -59 -324 -58 -480 1 -222 66 -348 187 -363 35
-4 45 -1 72 26 32 32 62 108 62 159 0 38 -21 140 -29 140 -4 0 -15 -19 -25
-42 -23 -52 -54 -88 -76 -88 -42 0 -93 94 -113 211 -15 83 -15 252 -2 392 5
42 3 67 -3 67 -5 0 -12 -10 -15 -22z"/>
<path d="M8736 6338 c-81 -226 -120 -539 -81 -662 31 -100 88 -156 158 -156
46 0 101 52 119 112 13 46 13 187 0 200 -5 5 -19 -11 -32 -34 -33 -61 -50 -78
-76 -78 -45 0 -86 86 -98 206 -6 52 5 219 19 304 17 100 26 173 22 176 -3 3
-16 -28 -31 -68z"/>
<path d="M10498 6355 c-11 -19 -57 -220 -69 -305 -18 -127 -16 -343 5 -405 26
-79 48 -114 88 -142 56 -38 104 -41 140 -6 53 50 63 79 62 186 -1 122 -12 137
-50 66 -16 -30 -41 -60 -57 -69 -26 -14 -28 -14 -51 15 -14 17 -35 55 -47 85
-20 49 -23 74 -25 235 -1 99 2 211 8 248 9 69 8 111 -4 92z"/>
<path d="M5717 6113 c-23 -47 -68 -170 -83 -231 -8 -31 -19 -73 -24 -92 -5
-19 -14 -80 -20 -135 -20 -183 28 -296 139 -325 51 -13 71 -3 125 63 26 32 30
47 34 116 6 112 -1 124 -40 70 -41 -57 -57 -69 -87 -66 -19 1 -32 15 -50 52
-22 42 -26 65 -29 160 -3 90 2 137 26 260 17 83 29 152 27 153 -2 2 -10 -9
-18 -25z"/>
<path d="M7145 5432 c-69 -37 -266 -153 -335 -197 -19 -13 -67 -41 -107 -64
-59 -35 -75 -50 -93 -88 -24 -51 -17 -69 21 -49 153 79 265 141 267 148 2 4 8
8 12 8 5 0 51 24 102 54 51 29 116 65 144 79 56 28 83 61 91 113 7 45 -11 45
-102 -4z"/>
<path d="M7955 5278 c-22 -43 -29 -56 -98 -170 -39 -64 -57 -103 -53 -115 8
-25 158 -177 222 -224 29 -21 73 -49 99 -61 l46 -22 27 33 c15 19 61 77 102
129 41 53 80 97 85 99 6 1 46 -29 90 -68 158 -141 244 -209 263 -209 11 0 40
19 65 43 56 52 170 233 159 253 -15 27 -283 295 -314 314 -62 37 -90 22 -158
-90 -59 -95 -112 -160 -132 -160 -4 0 -41 28 -81 63 -178 153 -264 217 -293
217 -6 0 -19 -15 -29 -32z"/>
<path d="M7179 3590 c-43 -13 -150 -101 -187 -155 -27 -40 -33 -56 -28 -83 4
-29 62 -118 102 -160 37 -37 27 -65 -64 -170 -30 -35 -52 -65 -49 -68 10 -10
117 35 139 58 33 34 118 88 223 141 50 25 104 59 121 75 35 34 59 84 51 106
-6 16 -38 10 -152 -30 -101 -35 -227 -7 -261 57 -28 55 -5 90 76 118 33 11 37
10 58 -14 14 -17 30 -25 45 -23 19 3 22 10 25 60 2 47 -1 61 -18 78 -21 21
-38 23 -81 10z"/>
<path d="M9058 3471 c-15 -33 -39 -97 -54 -143 -14 -46 -30 -94 -35 -106 -5
-13 -17 -82 -26 -153 -13 -109 -14 -138 -3 -190 21 -96 66 -147 145 -163 83
-18 169 117 151 237 -7 48 -20 61 -30 29 -4 -10 -20 -33 -38 -51 -44 -45 -75
-40 -108 19 -24 42 -25 53 -24 185 0 99 6 159 18 205 16 59 27 106 41 168 10
42 -10 22 -37 -37z"/>
<path d="M3910 3381 c-96 -42 -197 -87 -225 -100 -56 -26 -484 -210 -645 -278
-58 -24 -114 -48 -125 -53 -11 -5 -42 -18 -70 -30 -169 -71 -223 -100 -265
-142 -60 -60 -87 -125 -93 -225 l-5 -82 68 -65 c72 -70 96 -78 125 -46 16 17
16 24 5 65 -7 25 -32 73 -56 108 -24 34 -44 67 -44 72 0 17 268 160 430 230
41 18 100 44 130 58 72 33 185 82 285 122 44 18 116 49 160 69 43 21 118 53
165 73 168 69 233 105 282 156 48 50 91 124 82 139 -8 13 -22 9 -204 -71z"/>
<path d="M4944 3073 c-3 -10 -10 -29 -14 -43 -5 -14 -16 -59 -25 -100 -9 -41
-20 -88 -25 -105 -16 -58 -23 -231 -10 -256 20 -37 68 -76 102 -83 106 -21
177 5 267 99 47 49 63 74 77 121 33 114 -12 227 -118 296 -65 42 -117 64 -186
77 -66 14 -62 14 -68 -6z m121 -173 c51 -22 175 -138 175 -164 0 -19 -51 -58
-110 -85 -51 -23 -137 -28 -163 -8 -37 27 -41 193 -6 259 13 23 46 23 104 -2z"/>
<path d="M3419 2579 c-37 -53 -50 -118 -65 -349 -8 -124 -18 -228 -23 -233 -4
-4 -26 16 -48 45 -21 29 -66 88 -98 131 -86 114 -159 167 -233 167 -35 0 -41
-4 -52 -31 -21 -50 -18 -138 6 -179 18 -32 25 -35 80 -41 103 -10 180 -77 274
-235 63 -108 89 -144 100 -144 9 0 35 74 47 135 4 22 8 42 8 45 13 54 15 181
5 290 -18 194 -17 238 6 260 19 19 20 18 79 -21 33 -23 70 -50 82 -62 13 -11
25 -19 27 -16 11 12 34 68 41 96 8 41 -16 77 -87 134 -66 51 -116 54 -149 8z"/>
<path d="M1580 2287 c-49 -79 -99 -200 -140 -342 -49 -172 18 -315 149 -315
48 0 104 43 126 98 17 39 20 132 5 132 -5 0 -28 -18 -50 -40 -48 -48 -80 -52
-109 -12 -45 64 -51 166 -15 297 9 33 17 65 18 70 1 6 4 15 7 20 10 17 32 105
28 110 -3 2 -11 -6 -19 -18z"/>
<path d="M8232 1668 c-41 -111 -92 -303 -91 -343 0 -11 -2 -58 -5 -105 -3 -47
-2 -96 3 -110 5 -14 12 -37 15 -53 11 -48 71 -104 124 -116 42 -9 51 -7 82 13
64 42 98 154 74 244 -9 31 -15 28 -46 -23 -28 -46 -66 -72 -91 -62 -8 3 -28
32 -43 64 -28 55 -29 64 -28 193 1 116 17 253 40 333 3 9 1 17 -5 17 -5 0 -18
-24 -29 -52z"/>
<path d="M7534 1348 c-70 -74 -90 -144 -104 -369 -10 -150 -17 -199 -29 -199
-3 0 -37 52 -75 115 -139 233 -217 315 -343 360 -42 15 -55 16 -67 6 -45 -38
-47 -188 -4 -256 36 -57 56 -71 120 -83 80 -15 150 -54 191 -104 39 -48 99
-158 142 -260 15 -38 31 -68 35 -68 13 0 26 24 43 81 28 92 39 192 46 405 5
179 8 204 25 223 32 35 76 28 138 -23 77 -62 91 -65 118 -19 41 70 5 159 -86
210 -62 36 -102 31 -150 -19z"/>
<path d="M3400 940 c-66 -124 -106 -386 -72 -475 29 -77 83 -115 163 -115 37
0 48 6 84 44 47 49 57 84 42 154 l-9 44 -45 -51 c-29 -33 -53 -51 -67 -51 -22
0 -60 35 -85 79 -22 40 -25 168 -7 281 18 104 17 129 -4 90z"/>
<path d="M6307 862 c-39 -41 -74 -152 -48 -152 5 0 13 10 17 23 20 64 67 95
94 62 27 -33 60 33 35 71 -22 33 -64 32 -98 -4z"/>
<path d="M6130 620 c0 -11 16 -40 35 -65 31 -41 55 -99 55 -132 0 -7 5 -13 10
-13 11 0 13 9 10 65 -2 48 -22 89 -63 133 -36 37 -47 40 -47 12z"/>
<path d="M6414 590 c-53 -21 -114 -133 -114 -211 0 -14 -6 -32 -14 -39 -36
-29 -196 -53 -196 -29 0 6 11 24 25 41 48 57 45 122 -9 181 -40 44 -52 46 -60
12 -5 -20 1 -35 28 -69 33 -40 35 -44 20 -64 -21 -31 -99 -68 -159 -76 -43 -6
-53 -4 -73 15 -19 17 -23 28 -18 53 4 17 13 37 21 45 13 13 19 13 50 -2 35
-17 36 -17 47 7 15 34 5 53 -36 73 -34 16 -37 16 -56 -2 -26 -23 -61 -119 -62
-168 -1 -70 68 -116 144 -96 24 6 53 13 66 16 16 4 22 1 22 -10 0 -25 41 -47
85 -47 40 0 120 20 153 39 13 7 23 4 43 -15 61 -58 164 -45 327 42 152 80 185
104 196 142 5 18 6 35 3 38 -3 4 -28 -8 -55 -25 -66 -42 -111 -40 -164 7 -38
33 25 57 69 27 20 -14 23 -14 33 4 21 41 5 77 -43 94 -29 11 -74 -19 -102 -66
-32 -55 -32 -81 1 -124 31 -41 27 -46 -47 -72 -71 -25 -140 -34 -159 -21 -13
9 -11 14 13 31 45 35 33 99 -20 99 -28 0 -28 4 -3 46 28 44 55 52 85 24 30
-28 45 -19 45 26 0 24 -8 43 -25 59 -26 27 -30 28 -61 15z"/>
</g>
</svg>
