<?xml version="1.0" encoding="utf-8"?>
<svg viewBox="105.975 64 300.05 382.51" width="300.05" height="382.51" xmlns="http://www.w3.org/2000/svg">
  <path d="M344.52,418.8c10.58-3.06,20.31-6.48,29.54-10A124,124,0,0,1,371,421.9a338.66,338.66,0,0,1-33.14,11.47A341.85,341.85,0,0,1,256,446.51h0a341.85,341.85,0,0,1-81.81-13.14A338.66,338.66,0,0,1,141,421.9a124,124,0,0,1-3.1-13.14c9.23,3.55,19,7,29.54,10A369.8,369.8,0,0,0,256,433h0A369.8,369.8,0,0,0,344.52,418.8ZM263.64,158.49a7.86,7.86,0,0,0-4.26-7,43.8,43.8,0,0,0,44-48A33.38,33.38,0,1,1,258.52,64a43.75,43.75,0,0,0-5.15,87,7.87,7.87,0,1,0,10.27,7.49Zm140.45,169.3c-9.83-54.41-54.06-92.29-91.38-115.22a38.29,38.29,0,0,1-4.93,4.23l-.09.06a290.8,290.8,0,0,1,32.17,46.37c11.36,20.25,27.74,50.1,34.59,94a262.68,262.68,0,0,1,3.07,40.32c7.88-2.68,15.43-5.47,22.55-8.36C404,375.83,408.77,353.7,404.08,327.79ZM256,420.87H256c4.07-.16,8.29-.4,12.59-.69,3.48-23,5.55-43.24,6.79-59.83a785.1,785.1,0,0,0,1-102.39c-.59-10.54-1.34-19.91-2.1-28a111.51,111.51,0,0,1-36.72,0c-.76,8.1-1.5,17.47-2.1,28a785.1,785.1,0,0,0,1,102.39c1.24,16.59,3.31,36.85,6.79,59.83,4.3.29,8.52.53,12.59.69h0ZM326,341.2c-3.53-32.85-12.25-58.83-18.57-77.67-5.11-15.22-10.36-28.14-15-38.58h0a85.77,85.77,0,0,1-15,4.4h-.06c.79,8.32,1.57,18.07,2.18,29a785.15,785.15,0,0,1-1,102.39c-1.23,16.43-3.25,36.42-6.66,59.13A420.74,420.74,0,0,0,323,412.87C327.87,381.85,327.8,357.52,326,341.2Zm10.85-76.48a290.8,290.8,0,0,0-32.17-46.37l0,0-.11.08a54.84,54.84,0,0,1-9.13,5.23c4.84,10.74,10.41,24.26,15.81,40.37,6.32,18.84,15,44.82,18.57,77.67,1.73,16.1,1.87,39.95-2.82,70.34,9.55-2,19.36-4.41,29.42-7.32,6.27-1.81,12.29-3.74,18.14-5.73a262.68,262.68,0,0,0-3.07-40.32C364.63,314.81,348.25,285,336.89,264.72Zm-164.75-1.48a290.8,290.8,0,0,1,32.17-46.37l-.09-.06a38.29,38.29,0,0,1-4.93-4.23C162,235.5,117.75,273.38,107.92,327.79c-4.68,25.92.06,48,4,61.39,7.12,2.89,14.67,5.68,22.55,8.36a262.68,262.68,0,0,1,3.07-40.32C144.4,313.33,160.78,283.48,172.14,263.23Zm62.45-33.87h-.06a85.77,85.77,0,0,1-15-4.4h0c-4.65,10.44-9.91,23.37-15,38.58-6.32,18.84-15,44.82-18.57,77.67-1.75,16.32-1.83,40.65,3.09,71.67a420.74,420.74,0,0,0,51.07,7.05c-3.42-22.71-5.43-42.7-6.66-59.13a785.15,785.15,0,0,1-1-102.39C233,247.44,233.81,237.69,234.6,229.37ZM185,412.07c-4.69-30.39-4.55-54.24-2.82-70.34,3.53-32.85,12.25-58.83,18.57-77.67,5.41-16.11,11-29.63,15.81-40.37a54.84,54.84,0,0,1-9.13-5.23l-.11-.08,0,0a290.8,290.8,0,0,0-32.17,46.37c-11.36,20.25-27.74,50.1-34.59,94A262.68,262.68,0,0,0,137.44,399c5.85,2,11.87,3.92,18.14,5.73C165.64,407.65,175.45,410,185,412.07ZM210.73,212.7l.12.09.1.07a50.87,50.87,0,0,0,8.49,4.86c.89.41,1.81.79,2.75,1.16A79.5,79.5,0,0,0,236.09,223c.94.19,1.86.38,2.82.55a102.6,102.6,0,0,0,17,1.42H256a102.63,102.63,0,0,0,17-1.42c1-.16,1.89-.36,2.82-.55a79.52,79.52,0,0,0,13.89-4.09c.94-.38,1.86-.76,2.75-1.16a50.87,50.87,0,0,0,8.49-4.86l.1-.07.12-.09a35.49,35.49,0,0,0,4.57-3.92,309.23,309.23,0,0,0-44.8-22.7,10.59,10.59,0,1,0-10.38.12,309.38,309.38,0,0,0-44.51,22.59A35.49,35.49,0,0,0,210.73,212.7Z" style="fill: rgb(23, 48, 66);"/>
</svg>