<?xml version="1.0" encoding="utf-8"?>
<svg viewBox="108.811 64 294.374 384" width="294.374" height="384" xmlns="http://www.w3.org/2000/svg">
  <path d="M256,174.79a8.54,8.54,0,0,1-8.54-8.54,8.42,8.42,0,0,1,6.66-8.16A47.24,47.24,0,0,1,259,64a36.16,36.16,0,1,0,48.58,42.81,47.29,47.29,0,0,1-47.81,51.87A8.48,8.48,0,0,1,256,174.79ZM401.24,336.55c-15.35-85-114.49-129.63-140.38-140a11.45,11.45,0,1,0-9.72,0c-25.89,10.39-125,55.06-140.38,140-4.69,25.93.06,48.07,4,61.42a415.91,415.91,0,0,0,40.71,14.09A419.9,419.9,0,0,0,256,428.2h0a419.89,419.89,0,0,0,100.5-16.14A416,416,0,0,0,397.23,398C401.18,384.61,405.92,362.47,401.24,336.55ZM256,433.84h0a388.05,388.05,0,0,1-92.87-14.91c-11.1-3.21-21.31-6.8-31-10.53a129.88,129.88,0,0,0,3.25,13.78,355.19,355.19,0,0,0,34.78,12A358.69,358.69,0,0,0,256,448h0a358.69,358.69,0,0,0,85.85-13.79,355.3,355.3,0,0,0,34.78-12,129.88,129.88,0,0,0,3.25-13.78c-9.69,3.72-19.9,7.32-31,10.53A388,388,0,0,1,256,433.84Z" style="fill: rgb(23, 48, 66);"/>
</svg>