<?xml version="1.0" encoding="utf-8"?>
<svg viewBox="0 0 70 70" xmlns="http://www.w3.org/2000/svg">
  <path d="M 54.951 3.923 L 51.443 10.398 L 44.158 6.531 L 47.53 0.1 L 54.951 3.923 Z M 44.607 7.97 L 41.189 14.491 L 33.904 10.713 L 37.232 4.192 L 44.607 7.97 Z M 60.212 52.131 C 60.212 58.067 57.364 62.594 51.668 65.712 C 46.541 68.501 39.736 69.895 31.251 69.895 C 24.565 69.895 19.393 68.696 15.736 66.297 C 11.779 63.688 9.8 59.821 9.8 54.694 C 9.8 51.157 10.37 47.439 11.509 43.542 C 12.558 39.944 14.057 36.346 16.006 32.749 L 17.895 33.558 C 17.026 35.657 16.291 37.516 15.691 39.135 C 14.882 41.353 14.297 43.257 13.937 44.846 C 13.488 46.855 13.263 48.803 13.263 50.692 C 13.263 54.589 14.912 57.467 18.209 59.326 C 21.267 61.035 25.779 61.89 31.746 61.89 C 38.131 61.89 43.723 60.841 48.52 58.742 C 54.066 56.313 56.839 53.03 56.839 48.893 C 56.839 47.364 56.787 46.263 56.682 45.588 C 56.577 44.913 56.389 44.231 56.12 43.542 C 54.981 44.081 53.834 44.508 52.679 44.823 C 51.525 45.138 50.363 45.296 49.194 45.296 C 46.556 45.296 44.412 44.696 42.763 43.497 C 40.754 42.058 39.75 39.884 39.75 36.976 C 39.75 33.588 40.62 30.35 42.359 27.262 C 44.308 23.785 46.616 22.046 49.284 22.046 C 52.792 22.046 55.565 24.444 57.604 29.241 C 59.343 33.318 60.212 38.04 60.212 43.407 L 60.212 52.131 Z M 53.062 35.447 C 52.283 33.588 51.728 32.434 51.398 31.984 C 50.559 30.755 49.509 30.14 48.25 30.14 C 46.811 30.14 45.754 30.485 45.079 31.175 C 44.405 31.864 44.068 32.734 44.068 33.783 C 44.068 34.712 44.503 35.447 45.372 35.987 C 46.241 36.526 47.231 36.796 48.34 36.796 C 49.119 36.796 49.846 36.684 50.521 36.459 C 51.196 36.234 52.043 35.897 53.062 35.447 Z" style="white-space: pre; fill: rgb(63, 132, 161);"/>
</svg>