<?xml version="1.0" encoding="utf-8"?>
<svg viewBox="7.29 4.444 33.42 39.112" width="33.42" height="39.112" xmlns="http://www.w3.org/2000/svg">
  <defs>
    <style>
      .a {
        fill: #173042;
      }
    </style>
  </defs>
  <path class="a" d="M40.67,20.05v1.36a.51.51,0,0,1-.29.45L24.21,29.18a.51.51,0,0,1-.42,0L7.62,21.86a.51.51,0,0,1-.29-.45V20.05A.5.5,0,0,1,8,19.59l15.75,7.13a.51.51,0,0,0,.42,0L40,19.59A.5.5,0,0,1,40.67,20.05ZM40,24.79,24.21,31.93a.51.51,0,0,1-.42,0L8,24.79a.51.51,0,0,0-.71.46v9.67a2,2,0,0,0,1.18,1.82l14.67,6.64a2,2,0,0,0,1.64,0l6.59-3V32.65a.49.49,0,0,1,.29-.45l5.19-2.35a.5.5,0,0,1,.7.46V37.6l1.9-.86a2,2,0,0,0,1.18-1.82V25.25A.51.51,0,0,0,40,24.79Zm.71-11.71V16.2a.51.51,0,0,1-.29.46L24.21,24a.51.51,0,0,1-.42,0L7.62,16.66a.51.51,0,0,1-.29-.46V13.08a2,2,0,0,1,1.18-1.82L23.18,4.62a2,2,0,0,1,1.64,0l14.67,6.64A2,2,0,0,1,40.67,13.08ZM34.89,11.9,24.47,7.19a1.1,1.1,0,0,0-.94,0L13.11,11.9a.57.57,0,0,0,0,1l10.42,4.71a1.1,1.1,0,0,0,.94,0l10.42-4.71A.57.57,0,0,0,34.89,11.9Z"/>
</svg>