<?xml version="1.0" encoding="utf-8"?>
<svg version="1.1" id="Uploaded to svgrepo.com" width="800px" height="800px" viewBox="0 0 32 32" xmlns="http://www.w3.org/2000/svg">
  <style type="text/css">
	.open_een{fill:#0B1719;}
</style>
  <g>
    <g>
      <path class="open_een" d="M19.5,11h7c0.276,0,0.5-0.224,0.5-0.5S26.776,10,26.5,10h-7c-0.276,0-0.5,0.224-0.5,0.5 S19.224,11,19.5,11z" style="fill: rgb(255, 255, 255);"/>
      <path class="open_een" d="M19.5,14h7c0.276,0,0.5-0.224,0.5-0.5S26.776,13,26.5,13h-7c-0.276,0-0.5,0.224-0.5,0.5 S19.224,14,19.5,14z" style="fill: rgb(255, 255, 255);"/>
      <path class="open_een" d="M19.5,17h7c0.276,0,0.5-0.224,0.5-0.5S26.776,16,26.5,16h-7c-0.276,0-0.5,0.224-0.5,0.5 S19.224,17,19.5,17z" style="fill: rgb(255, 255, 255);"/>
      <path class="open_een" d="M19.5,20h7c0.276,0,0.5-0.224,0.5-0.5S26.776,19,26.5,19h-7c-0.276,0-0.5,0.224-0.5,0.5 S19.224,20,19.5,20z" style="fill: rgb(255, 255, 255);"/>
      <path class="open_een" d="M28.5,5h-10C18.224,5,18,5.224,18,5.5S18.224,6,18.5,6h10C28.776,6,29,6.225,29,6.5v19 c0,0.275-0.224,0.5-0.5,0.5h-25C3.224,26,3,25.775,3,25.5v-19C3,6.225,3.224,6,3.5,6H15v17.5c0,0.276,0.224,0.5,0.5,0.5 s0.5-0.224,0.5-0.5v-18C16,5.224,15.776,5,15.5,5h-12C2.673,5,2,5.673,2,6.5v19C2,26.327,2.673,27,3.5,27h25 c0.827,0,1.5-0.673,1.5-1.5v-19C30,5.673,29.327,5,28.5,5z" style="fill: rgb(255, 255, 255);"/>
    </g>
    <g>
      <path class="open_een" d="M19.5,11h7c0.276,0,0.5-0.224,0.5-0.5S26.776,10,26.5,10h-7c-0.276,0-0.5,0.224-0.5,0.5 S19.224,11,19.5,11z" style="fill: rgb(255, 255, 255);"/>
      <path class="open_een" d="M19.5,14h7c0.276,0,0.5-0.224,0.5-0.5S26.776,13,26.5,13h-7c-0.276,0-0.5,0.224-0.5,0.5 S19.224,14,19.5,14z" style="fill: rgb(255, 255, 255);"/>
      <path class="open_een" d="M19.5,17h7c0.276,0,0.5-0.224,0.5-0.5S26.776,16,26.5,16h-7c-0.276,0-0.5,0.224-0.5,0.5 S19.224,17,19.5,17z" style="fill: rgb(255, 255, 255);"/>
      <path class="open_een" d="M19.5,20h7c0.276,0,0.5-0.224,0.5-0.5S26.776,19,26.5,19h-7c-0.276,0-0.5,0.224-0.5,0.5 S19.224,20,19.5,20z" style="fill: rgb(255, 255, 255);"/>
      <path class="open_een" d="M28.5,5h-10C18.224,5,18,5.224,18,5.5S18.224,6,18.5,6h10C28.776,6,29,6.225,29,6.5v19 c0,0.275-0.224,0.5-0.5,0.5h-25C3.224,26,3,25.775,3,25.5v-19C3,6.225,3.224,6,3.5,6H15v17.5c0,0.276,0.224,0.5,0.5,0.5 s0.5-0.224,0.5-0.5v-18C16,5.224,15.776,5,15.5,5h-12C2.673,5,2,5.673,2,6.5v19C2,26.327,2.673,27,3.5,27h25 c0.827,0,1.5-0.673,1.5-1.5v-19C30,5.673,29.327,5,28.5,5z" style="fill: rgb(255, 255, 255);"/>
    </g>
  </g>
</svg>